%TF.GenerationSoftware,KiCad,Pcbnew,8.0.5*%
%TF.CreationDate,2025-06-03T16:45:13-04:00*%
%TF.ProjectId,arm,61726d2e-6b69-4636-9164-5f7063625858,rev?*%
%TF.SameCoordinates,Original*%
%TF.FileFunction,Legend,Top*%
%TF.FilePolarity,Positive*%
%FSLAX46Y46*%
G04 Gerber Fmt 4.6, Leading zero omitted, Abs format (unit mm)*
G04 Created by KiCad (PCBNEW 8.0.5) date 2025-06-03 16:45:13*
%MOMM*%
%LPD*%
G01*
G04 APERTURE LIST*
%ADD10C,0.100000*%
%ADD11C,0.150000*%
%ADD12C,0.120000*%
%ADD13C,0.127000*%
%ADD14C,0.200000*%
G04 APERTURE END LIST*
D10*
X204467657Y-118243734D02*
X204420038Y-118196115D01*
X204420038Y-118196115D02*
X204372419Y-118100877D01*
X204372419Y-118100877D02*
X204372419Y-117862782D01*
X204372419Y-117862782D02*
X204420038Y-117767544D01*
X204420038Y-117767544D02*
X204467657Y-117719925D01*
X204467657Y-117719925D02*
X204562895Y-117672306D01*
X204562895Y-117672306D02*
X204658133Y-117672306D01*
X204658133Y-117672306D02*
X204800990Y-117719925D01*
X204800990Y-117719925D02*
X205372419Y-118291353D01*
X205372419Y-118291353D02*
X205372419Y-117672306D01*
X204705752Y-116815163D02*
X205372419Y-116815163D01*
X204324800Y-117053258D02*
X205039085Y-117291353D01*
X205039085Y-117291353D02*
X205039085Y-116672306D01*
X204372419Y-116434210D02*
X205372419Y-116100877D01*
X205372419Y-116100877D02*
X204372419Y-115767544D01*
D11*
X199417438Y-116139411D02*
X199369819Y-116234649D01*
X199369819Y-116234649D02*
X199369819Y-116377506D01*
X199369819Y-116377506D02*
X199417438Y-116520363D01*
X199417438Y-116520363D02*
X199512676Y-116615601D01*
X199512676Y-116615601D02*
X199607914Y-116663220D01*
X199607914Y-116663220D02*
X199798390Y-116710839D01*
X199798390Y-116710839D02*
X199941247Y-116710839D01*
X199941247Y-116710839D02*
X200131723Y-116663220D01*
X200131723Y-116663220D02*
X200226961Y-116615601D01*
X200226961Y-116615601D02*
X200322200Y-116520363D01*
X200322200Y-116520363D02*
X200369819Y-116377506D01*
X200369819Y-116377506D02*
X200369819Y-116282268D01*
X200369819Y-116282268D02*
X200322200Y-116139411D01*
X200322200Y-116139411D02*
X200274580Y-116091792D01*
X200274580Y-116091792D02*
X199941247Y-116091792D01*
X199941247Y-116091792D02*
X199941247Y-116282268D01*
X200369819Y-115663220D02*
X199369819Y-115663220D01*
X199369819Y-115663220D02*
X200369819Y-115091792D01*
X200369819Y-115091792D02*
X199369819Y-115091792D01*
X200369819Y-114615601D02*
X199369819Y-114615601D01*
X199369819Y-114615601D02*
X199369819Y-114377506D01*
X199369819Y-114377506D02*
X199417438Y-114234649D01*
X199417438Y-114234649D02*
X199512676Y-114139411D01*
X199512676Y-114139411D02*
X199607914Y-114091792D01*
X199607914Y-114091792D02*
X199798390Y-114044173D01*
X199798390Y-114044173D02*
X199941247Y-114044173D01*
X199941247Y-114044173D02*
X200131723Y-114091792D01*
X200131723Y-114091792D02*
X200226961Y-114139411D01*
X200226961Y-114139411D02*
X200322200Y-114234649D01*
X200322200Y-114234649D02*
X200369819Y-114377506D01*
X200369819Y-114377506D02*
X200369819Y-114615601D01*
X159417438Y-116139411D02*
X159369819Y-116234649D01*
X159369819Y-116234649D02*
X159369819Y-116377506D01*
X159369819Y-116377506D02*
X159417438Y-116520363D01*
X159417438Y-116520363D02*
X159512676Y-116615601D01*
X159512676Y-116615601D02*
X159607914Y-116663220D01*
X159607914Y-116663220D02*
X159798390Y-116710839D01*
X159798390Y-116710839D02*
X159941247Y-116710839D01*
X159941247Y-116710839D02*
X160131723Y-116663220D01*
X160131723Y-116663220D02*
X160226961Y-116615601D01*
X160226961Y-116615601D02*
X160322200Y-116520363D01*
X160322200Y-116520363D02*
X160369819Y-116377506D01*
X160369819Y-116377506D02*
X160369819Y-116282268D01*
X160369819Y-116282268D02*
X160322200Y-116139411D01*
X160322200Y-116139411D02*
X160274580Y-116091792D01*
X160274580Y-116091792D02*
X159941247Y-116091792D01*
X159941247Y-116091792D02*
X159941247Y-116282268D01*
X160369819Y-115663220D02*
X159369819Y-115663220D01*
X159369819Y-115663220D02*
X160369819Y-115091792D01*
X160369819Y-115091792D02*
X159369819Y-115091792D01*
X160369819Y-114615601D02*
X159369819Y-114615601D01*
X159369819Y-114615601D02*
X159369819Y-114377506D01*
X159369819Y-114377506D02*
X159417438Y-114234649D01*
X159417438Y-114234649D02*
X159512676Y-114139411D01*
X159512676Y-114139411D02*
X159607914Y-114091792D01*
X159607914Y-114091792D02*
X159798390Y-114044173D01*
X159798390Y-114044173D02*
X159941247Y-114044173D01*
X159941247Y-114044173D02*
X160131723Y-114091792D01*
X160131723Y-114091792D02*
X160226961Y-114139411D01*
X160226961Y-114139411D02*
X160322200Y-114234649D01*
X160322200Y-114234649D02*
X160369819Y-114377506D01*
X160369819Y-114377506D02*
X160369819Y-114615601D01*
D10*
X233756265Y-109967657D02*
X233803884Y-109920038D01*
X233803884Y-109920038D02*
X233899122Y-109872419D01*
X233899122Y-109872419D02*
X234137217Y-109872419D01*
X234137217Y-109872419D02*
X234232455Y-109920038D01*
X234232455Y-109920038D02*
X234280074Y-109967657D01*
X234280074Y-109967657D02*
X234327693Y-110062895D01*
X234327693Y-110062895D02*
X234327693Y-110158133D01*
X234327693Y-110158133D02*
X234280074Y-110300990D01*
X234280074Y-110300990D02*
X233708646Y-110872419D01*
X233708646Y-110872419D02*
X234327693Y-110872419D01*
X235184836Y-110205752D02*
X235184836Y-110872419D01*
X234946741Y-109824800D02*
X234708646Y-110539085D01*
X234708646Y-110539085D02*
X235327693Y-110539085D01*
X235565789Y-109872419D02*
X235899122Y-110872419D01*
X235899122Y-110872419D02*
X236232455Y-109872419D01*
D11*
X240917438Y-121639411D02*
X240869819Y-121734649D01*
X240869819Y-121734649D02*
X240869819Y-121877506D01*
X240869819Y-121877506D02*
X240917438Y-122020363D01*
X240917438Y-122020363D02*
X241012676Y-122115601D01*
X241012676Y-122115601D02*
X241107914Y-122163220D01*
X241107914Y-122163220D02*
X241298390Y-122210839D01*
X241298390Y-122210839D02*
X241441247Y-122210839D01*
X241441247Y-122210839D02*
X241631723Y-122163220D01*
X241631723Y-122163220D02*
X241726961Y-122115601D01*
X241726961Y-122115601D02*
X241822200Y-122020363D01*
X241822200Y-122020363D02*
X241869819Y-121877506D01*
X241869819Y-121877506D02*
X241869819Y-121782268D01*
X241869819Y-121782268D02*
X241822200Y-121639411D01*
X241822200Y-121639411D02*
X241774580Y-121591792D01*
X241774580Y-121591792D02*
X241441247Y-121591792D01*
X241441247Y-121591792D02*
X241441247Y-121782268D01*
X241869819Y-121163220D02*
X240869819Y-121163220D01*
X240869819Y-121163220D02*
X241869819Y-120591792D01*
X241869819Y-120591792D02*
X240869819Y-120591792D01*
X241869819Y-120115601D02*
X240869819Y-120115601D01*
X240869819Y-120115601D02*
X240869819Y-119877506D01*
X240869819Y-119877506D02*
X240917438Y-119734649D01*
X240917438Y-119734649D02*
X241012676Y-119639411D01*
X241012676Y-119639411D02*
X241107914Y-119591792D01*
X241107914Y-119591792D02*
X241298390Y-119544173D01*
X241298390Y-119544173D02*
X241441247Y-119544173D01*
X241441247Y-119544173D02*
X241631723Y-119591792D01*
X241631723Y-119591792D02*
X241726961Y-119639411D01*
X241726961Y-119639411D02*
X241822200Y-119734649D01*
X241822200Y-119734649D02*
X241869819Y-119877506D01*
X241869819Y-119877506D02*
X241869819Y-120115601D01*
D10*
X224467657Y-116743734D02*
X224420038Y-116696115D01*
X224420038Y-116696115D02*
X224372419Y-116600877D01*
X224372419Y-116600877D02*
X224372419Y-116362782D01*
X224372419Y-116362782D02*
X224420038Y-116267544D01*
X224420038Y-116267544D02*
X224467657Y-116219925D01*
X224467657Y-116219925D02*
X224562895Y-116172306D01*
X224562895Y-116172306D02*
X224658133Y-116172306D01*
X224658133Y-116172306D02*
X224800990Y-116219925D01*
X224800990Y-116219925D02*
X225372419Y-116791353D01*
X225372419Y-116791353D02*
X225372419Y-116172306D01*
X224705752Y-115315163D02*
X225372419Y-115315163D01*
X224324800Y-115553258D02*
X225039085Y-115791353D01*
X225039085Y-115791353D02*
X225039085Y-115172306D01*
X224372419Y-114934210D02*
X225372419Y-114600877D01*
X225372419Y-114600877D02*
X224372419Y-114267544D01*
D11*
X219417438Y-116139411D02*
X219369819Y-116234649D01*
X219369819Y-116234649D02*
X219369819Y-116377506D01*
X219369819Y-116377506D02*
X219417438Y-116520363D01*
X219417438Y-116520363D02*
X219512676Y-116615601D01*
X219512676Y-116615601D02*
X219607914Y-116663220D01*
X219607914Y-116663220D02*
X219798390Y-116710839D01*
X219798390Y-116710839D02*
X219941247Y-116710839D01*
X219941247Y-116710839D02*
X220131723Y-116663220D01*
X220131723Y-116663220D02*
X220226961Y-116615601D01*
X220226961Y-116615601D02*
X220322200Y-116520363D01*
X220322200Y-116520363D02*
X220369819Y-116377506D01*
X220369819Y-116377506D02*
X220369819Y-116282268D01*
X220369819Y-116282268D02*
X220322200Y-116139411D01*
X220322200Y-116139411D02*
X220274580Y-116091792D01*
X220274580Y-116091792D02*
X219941247Y-116091792D01*
X219941247Y-116091792D02*
X219941247Y-116282268D01*
X220369819Y-115663220D02*
X219369819Y-115663220D01*
X219369819Y-115663220D02*
X220369819Y-115091792D01*
X220369819Y-115091792D02*
X219369819Y-115091792D01*
X220369819Y-114615601D02*
X219369819Y-114615601D01*
X219369819Y-114615601D02*
X219369819Y-114377506D01*
X219369819Y-114377506D02*
X219417438Y-114234649D01*
X219417438Y-114234649D02*
X219512676Y-114139411D01*
X219512676Y-114139411D02*
X219607914Y-114091792D01*
X219607914Y-114091792D02*
X219798390Y-114044173D01*
X219798390Y-114044173D02*
X219941247Y-114044173D01*
X219941247Y-114044173D02*
X220131723Y-114091792D01*
X220131723Y-114091792D02*
X220226961Y-114139411D01*
X220226961Y-114139411D02*
X220322200Y-114234649D01*
X220322200Y-114234649D02*
X220369819Y-114377506D01*
X220369819Y-114377506D02*
X220369819Y-114615601D01*
D10*
X240967657Y-115243734D02*
X240920038Y-115196115D01*
X240920038Y-115196115D02*
X240872419Y-115100877D01*
X240872419Y-115100877D02*
X240872419Y-114862782D01*
X240872419Y-114862782D02*
X240920038Y-114767544D01*
X240920038Y-114767544D02*
X240967657Y-114719925D01*
X240967657Y-114719925D02*
X241062895Y-114672306D01*
X241062895Y-114672306D02*
X241158133Y-114672306D01*
X241158133Y-114672306D02*
X241300990Y-114719925D01*
X241300990Y-114719925D02*
X241872419Y-115291353D01*
X241872419Y-115291353D02*
X241872419Y-114672306D01*
X241205752Y-113815163D02*
X241872419Y-113815163D01*
X240824800Y-114053258D02*
X241539085Y-114291353D01*
X241539085Y-114291353D02*
X241539085Y-113672306D01*
X240872419Y-113434210D02*
X241872419Y-113100877D01*
X241872419Y-113100877D02*
X240872419Y-112767544D01*
D11*
X169860588Y-43417438D02*
X169765350Y-43369819D01*
X169765350Y-43369819D02*
X169622493Y-43369819D01*
X169622493Y-43369819D02*
X169479636Y-43417438D01*
X169479636Y-43417438D02*
X169384398Y-43512676D01*
X169384398Y-43512676D02*
X169336779Y-43607914D01*
X169336779Y-43607914D02*
X169289160Y-43798390D01*
X169289160Y-43798390D02*
X169289160Y-43941247D01*
X169289160Y-43941247D02*
X169336779Y-44131723D01*
X169336779Y-44131723D02*
X169384398Y-44226961D01*
X169384398Y-44226961D02*
X169479636Y-44322200D01*
X169479636Y-44322200D02*
X169622493Y-44369819D01*
X169622493Y-44369819D02*
X169717731Y-44369819D01*
X169717731Y-44369819D02*
X169860588Y-44322200D01*
X169860588Y-44322200D02*
X169908207Y-44274580D01*
X169908207Y-44274580D02*
X169908207Y-43941247D01*
X169908207Y-43941247D02*
X169717731Y-43941247D01*
X170336779Y-44369819D02*
X170336779Y-43369819D01*
X170336779Y-43369819D02*
X170908207Y-44369819D01*
X170908207Y-44369819D02*
X170908207Y-43369819D01*
X171384398Y-44369819D02*
X171384398Y-43369819D01*
X171384398Y-43369819D02*
X171622493Y-43369819D01*
X171622493Y-43369819D02*
X171765350Y-43417438D01*
X171765350Y-43417438D02*
X171860588Y-43512676D01*
X171860588Y-43512676D02*
X171908207Y-43607914D01*
X171908207Y-43607914D02*
X171955826Y-43798390D01*
X171955826Y-43798390D02*
X171955826Y-43941247D01*
X171955826Y-43941247D02*
X171908207Y-44131723D01*
X171908207Y-44131723D02*
X171860588Y-44226961D01*
X171860588Y-44226961D02*
X171765350Y-44322200D01*
X171765350Y-44322200D02*
X171622493Y-44369819D01*
X171622493Y-44369819D02*
X171384398Y-44369819D01*
X179917438Y-116639411D02*
X179869819Y-116734649D01*
X179869819Y-116734649D02*
X179869819Y-116877506D01*
X179869819Y-116877506D02*
X179917438Y-117020363D01*
X179917438Y-117020363D02*
X180012676Y-117115601D01*
X180012676Y-117115601D02*
X180107914Y-117163220D01*
X180107914Y-117163220D02*
X180298390Y-117210839D01*
X180298390Y-117210839D02*
X180441247Y-117210839D01*
X180441247Y-117210839D02*
X180631723Y-117163220D01*
X180631723Y-117163220D02*
X180726961Y-117115601D01*
X180726961Y-117115601D02*
X180822200Y-117020363D01*
X180822200Y-117020363D02*
X180869819Y-116877506D01*
X180869819Y-116877506D02*
X180869819Y-116782268D01*
X180869819Y-116782268D02*
X180822200Y-116639411D01*
X180822200Y-116639411D02*
X180774580Y-116591792D01*
X180774580Y-116591792D02*
X180441247Y-116591792D01*
X180441247Y-116591792D02*
X180441247Y-116782268D01*
X180869819Y-116163220D02*
X179869819Y-116163220D01*
X179869819Y-116163220D02*
X180869819Y-115591792D01*
X180869819Y-115591792D02*
X179869819Y-115591792D01*
X180869819Y-115115601D02*
X179869819Y-115115601D01*
X179869819Y-115115601D02*
X179869819Y-114877506D01*
X179869819Y-114877506D02*
X179917438Y-114734649D01*
X179917438Y-114734649D02*
X180012676Y-114639411D01*
X180012676Y-114639411D02*
X180107914Y-114591792D01*
X180107914Y-114591792D02*
X180298390Y-114544173D01*
X180298390Y-114544173D02*
X180441247Y-114544173D01*
X180441247Y-114544173D02*
X180631723Y-114591792D01*
X180631723Y-114591792D02*
X180726961Y-114639411D01*
X180726961Y-114639411D02*
X180822200Y-114734649D01*
X180822200Y-114734649D02*
X180869819Y-114877506D01*
X180869819Y-114877506D02*
X180869819Y-115115601D01*
D10*
X164967657Y-116743734D02*
X164920038Y-116696115D01*
X164920038Y-116696115D02*
X164872419Y-116600877D01*
X164872419Y-116600877D02*
X164872419Y-116362782D01*
X164872419Y-116362782D02*
X164920038Y-116267544D01*
X164920038Y-116267544D02*
X164967657Y-116219925D01*
X164967657Y-116219925D02*
X165062895Y-116172306D01*
X165062895Y-116172306D02*
X165158133Y-116172306D01*
X165158133Y-116172306D02*
X165300990Y-116219925D01*
X165300990Y-116219925D02*
X165872419Y-116791353D01*
X165872419Y-116791353D02*
X165872419Y-116172306D01*
X165205752Y-115315163D02*
X165872419Y-115315163D01*
X164824800Y-115553258D02*
X165539085Y-115791353D01*
X165539085Y-115791353D02*
X165539085Y-115172306D01*
X164872419Y-114934210D02*
X165872419Y-114600877D01*
X165872419Y-114600877D02*
X164872419Y-114267544D01*
D11*
X219636666Y-117304819D02*
X219636666Y-118019104D01*
X219636666Y-118019104D02*
X219589047Y-118161961D01*
X219589047Y-118161961D02*
X219493809Y-118257200D01*
X219493809Y-118257200D02*
X219350952Y-118304819D01*
X219350952Y-118304819D02*
X219255714Y-118304819D01*
X220541428Y-117638152D02*
X220541428Y-118304819D01*
X220303333Y-117257200D02*
X220065238Y-117971485D01*
X220065238Y-117971485D02*
X220684285Y-117971485D01*
X243704819Y-123283333D02*
X244419104Y-123283333D01*
X244419104Y-123283333D02*
X244561961Y-123330952D01*
X244561961Y-123330952D02*
X244657200Y-123426190D01*
X244657200Y-123426190D02*
X244704819Y-123569047D01*
X244704819Y-123569047D02*
X244704819Y-123664285D01*
X243704819Y-122378571D02*
X243704819Y-122569047D01*
X243704819Y-122569047D02*
X243752438Y-122664285D01*
X243752438Y-122664285D02*
X243800057Y-122711904D01*
X243800057Y-122711904D02*
X243942914Y-122807142D01*
X243942914Y-122807142D02*
X244133390Y-122854761D01*
X244133390Y-122854761D02*
X244514342Y-122854761D01*
X244514342Y-122854761D02*
X244609580Y-122807142D01*
X244609580Y-122807142D02*
X244657200Y-122759523D01*
X244657200Y-122759523D02*
X244704819Y-122664285D01*
X244704819Y-122664285D02*
X244704819Y-122473809D01*
X244704819Y-122473809D02*
X244657200Y-122378571D01*
X244657200Y-122378571D02*
X244609580Y-122330952D01*
X244609580Y-122330952D02*
X244514342Y-122283333D01*
X244514342Y-122283333D02*
X244276247Y-122283333D01*
X244276247Y-122283333D02*
X244181009Y-122330952D01*
X244181009Y-122330952D02*
X244133390Y-122378571D01*
X244133390Y-122378571D02*
X244085771Y-122473809D01*
X244085771Y-122473809D02*
X244085771Y-122664285D01*
X244085771Y-122664285D02*
X244133390Y-122759523D01*
X244133390Y-122759523D02*
X244181009Y-122807142D01*
X244181009Y-122807142D02*
X244276247Y-122854761D01*
X161824819Y-41976666D02*
X161348628Y-42309999D01*
X161824819Y-42548094D02*
X160824819Y-42548094D01*
X160824819Y-42548094D02*
X160824819Y-42167142D01*
X160824819Y-42167142D02*
X160872438Y-42071904D01*
X160872438Y-42071904D02*
X160920057Y-42024285D01*
X160920057Y-42024285D02*
X161015295Y-41976666D01*
X161015295Y-41976666D02*
X161158152Y-41976666D01*
X161158152Y-41976666D02*
X161253390Y-42024285D01*
X161253390Y-42024285D02*
X161301009Y-42071904D01*
X161301009Y-42071904D02*
X161348628Y-42167142D01*
X161348628Y-42167142D02*
X161348628Y-42548094D01*
X160824819Y-41071904D02*
X160824819Y-41548094D01*
X160824819Y-41548094D02*
X161301009Y-41595713D01*
X161301009Y-41595713D02*
X161253390Y-41548094D01*
X161253390Y-41548094D02*
X161205771Y-41452856D01*
X161205771Y-41452856D02*
X161205771Y-41214761D01*
X161205771Y-41214761D02*
X161253390Y-41119523D01*
X161253390Y-41119523D02*
X161301009Y-41071904D01*
X161301009Y-41071904D02*
X161396247Y-41024285D01*
X161396247Y-41024285D02*
X161634342Y-41024285D01*
X161634342Y-41024285D02*
X161729580Y-41071904D01*
X161729580Y-41071904D02*
X161777200Y-41119523D01*
X161777200Y-41119523D02*
X161824819Y-41214761D01*
X161824819Y-41214761D02*
X161824819Y-41452856D01*
X161824819Y-41452856D02*
X161777200Y-41548094D01*
X161777200Y-41548094D02*
X161729580Y-41595713D01*
X184143333Y-53824819D02*
X183810000Y-53348628D01*
X183571905Y-53824819D02*
X183571905Y-52824819D01*
X183571905Y-52824819D02*
X183952857Y-52824819D01*
X183952857Y-52824819D02*
X184048095Y-52872438D01*
X184048095Y-52872438D02*
X184095714Y-52920057D01*
X184095714Y-52920057D02*
X184143333Y-53015295D01*
X184143333Y-53015295D02*
X184143333Y-53158152D01*
X184143333Y-53158152D02*
X184095714Y-53253390D01*
X184095714Y-53253390D02*
X184048095Y-53301009D01*
X184048095Y-53301009D02*
X183952857Y-53348628D01*
X183952857Y-53348628D02*
X183571905Y-53348628D01*
X184476667Y-52824819D02*
X185143333Y-52824819D01*
X185143333Y-52824819D02*
X184714762Y-53824819D01*
X199556666Y-117304819D02*
X199556666Y-118019104D01*
X199556666Y-118019104D02*
X199509047Y-118161961D01*
X199509047Y-118161961D02*
X199413809Y-118257200D01*
X199413809Y-118257200D02*
X199270952Y-118304819D01*
X199270952Y-118304819D02*
X199175714Y-118304819D01*
X199937619Y-117304819D02*
X200556666Y-117304819D01*
X200556666Y-117304819D02*
X200223333Y-117685771D01*
X200223333Y-117685771D02*
X200366190Y-117685771D01*
X200366190Y-117685771D02*
X200461428Y-117733390D01*
X200461428Y-117733390D02*
X200509047Y-117781009D01*
X200509047Y-117781009D02*
X200556666Y-117876247D01*
X200556666Y-117876247D02*
X200556666Y-118114342D01*
X200556666Y-118114342D02*
X200509047Y-118209580D01*
X200509047Y-118209580D02*
X200461428Y-118257200D01*
X200461428Y-118257200D02*
X200366190Y-118304819D01*
X200366190Y-118304819D02*
X200080476Y-118304819D01*
X200080476Y-118304819D02*
X199985238Y-118257200D01*
X199985238Y-118257200D02*
X199937619Y-118209580D01*
X222873089Y-73753593D02*
X223664923Y-73921903D01*
X223664923Y-73921903D02*
X223767980Y-73895125D01*
X223767980Y-73895125D02*
X223824459Y-73858448D01*
X223824459Y-73858448D02*
X223890839Y-73775191D01*
X223890839Y-73775191D02*
X223930441Y-73588877D01*
X223930441Y-73588877D02*
X223903664Y-73485820D01*
X223903664Y-73485820D02*
X223866986Y-73429341D01*
X223866986Y-73429341D02*
X223783730Y-73362961D01*
X223783730Y-73362961D02*
X222991896Y-73194652D01*
X224177955Y-72424416D02*
X224059148Y-72983357D01*
X224118552Y-72703887D02*
X223140404Y-72495975D01*
X223140404Y-72495975D02*
X223260338Y-72618834D01*
X223260338Y-72618834D02*
X223333694Y-72731792D01*
X223333694Y-72731792D02*
X223360472Y-72834849D01*
X154824819Y-42166666D02*
X154348628Y-42499999D01*
X154824819Y-42738094D02*
X153824819Y-42738094D01*
X153824819Y-42738094D02*
X153824819Y-42357142D01*
X153824819Y-42357142D02*
X153872438Y-42261904D01*
X153872438Y-42261904D02*
X153920057Y-42214285D01*
X153920057Y-42214285D02*
X154015295Y-42166666D01*
X154015295Y-42166666D02*
X154158152Y-42166666D01*
X154158152Y-42166666D02*
X154253390Y-42214285D01*
X154253390Y-42214285D02*
X154301009Y-42261904D01*
X154301009Y-42261904D02*
X154348628Y-42357142D01*
X154348628Y-42357142D02*
X154348628Y-42738094D01*
X153824819Y-41309523D02*
X153824819Y-41499999D01*
X153824819Y-41499999D02*
X153872438Y-41595237D01*
X153872438Y-41595237D02*
X153920057Y-41642856D01*
X153920057Y-41642856D02*
X154062914Y-41738094D01*
X154062914Y-41738094D02*
X154253390Y-41785713D01*
X154253390Y-41785713D02*
X154634342Y-41785713D01*
X154634342Y-41785713D02*
X154729580Y-41738094D01*
X154729580Y-41738094D02*
X154777200Y-41690475D01*
X154777200Y-41690475D02*
X154824819Y-41595237D01*
X154824819Y-41595237D02*
X154824819Y-41404761D01*
X154824819Y-41404761D02*
X154777200Y-41309523D01*
X154777200Y-41309523D02*
X154729580Y-41261904D01*
X154729580Y-41261904D02*
X154634342Y-41214285D01*
X154634342Y-41214285D02*
X154396247Y-41214285D01*
X154396247Y-41214285D02*
X154301009Y-41261904D01*
X154301009Y-41261904D02*
X154253390Y-41309523D01*
X154253390Y-41309523D02*
X154205771Y-41404761D01*
X154205771Y-41404761D02*
X154205771Y-41595237D01*
X154205771Y-41595237D02*
X154253390Y-41690475D01*
X154253390Y-41690475D02*
X154301009Y-41738094D01*
X154301009Y-41738094D02*
X154396247Y-41785713D01*
X190833333Y-56824819D02*
X190500000Y-56348628D01*
X190261905Y-56824819D02*
X190261905Y-55824819D01*
X190261905Y-55824819D02*
X190642857Y-55824819D01*
X190642857Y-55824819D02*
X190738095Y-55872438D01*
X190738095Y-55872438D02*
X190785714Y-55920057D01*
X190785714Y-55920057D02*
X190833333Y-56015295D01*
X190833333Y-56015295D02*
X190833333Y-56158152D01*
X190833333Y-56158152D02*
X190785714Y-56253390D01*
X190785714Y-56253390D02*
X190738095Y-56301009D01*
X190738095Y-56301009D02*
X190642857Y-56348628D01*
X190642857Y-56348628D02*
X190261905Y-56348628D01*
X191690476Y-56158152D02*
X191690476Y-56824819D01*
X191452381Y-55777200D02*
X191214286Y-56491485D01*
X191214286Y-56491485D02*
X191833333Y-56491485D01*
X153167655Y-65237605D02*
X153167655Y-66048658D01*
X153167655Y-66048658D02*
X153215364Y-66144076D01*
X153215364Y-66144076D02*
X153263073Y-66191786D01*
X153263073Y-66191786D02*
X153358491Y-66239495D01*
X153358491Y-66239495D02*
X153549327Y-66239495D01*
X153549327Y-66239495D02*
X153644745Y-66191786D01*
X153644745Y-66191786D02*
X153692454Y-66144076D01*
X153692454Y-66144076D02*
X153740163Y-66048658D01*
X153740163Y-66048658D02*
X153740163Y-65237605D01*
X154169545Y-65333023D02*
X154217254Y-65285314D01*
X154217254Y-65285314D02*
X154312672Y-65237605D01*
X154312672Y-65237605D02*
X154551217Y-65237605D01*
X154551217Y-65237605D02*
X154646635Y-65285314D01*
X154646635Y-65285314D02*
X154694344Y-65333023D01*
X154694344Y-65333023D02*
X154742053Y-65428441D01*
X154742053Y-65428441D02*
X154742053Y-65523859D01*
X154742053Y-65523859D02*
X154694344Y-65666986D01*
X154694344Y-65666986D02*
X154121836Y-66239495D01*
X154121836Y-66239495D02*
X154742053Y-66239495D01*
X182207200Y-45033332D02*
X182254819Y-44890475D01*
X182254819Y-44890475D02*
X182254819Y-44652380D01*
X182254819Y-44652380D02*
X182207200Y-44557142D01*
X182207200Y-44557142D02*
X182159580Y-44509523D01*
X182159580Y-44509523D02*
X182064342Y-44461904D01*
X182064342Y-44461904D02*
X181969104Y-44461904D01*
X181969104Y-44461904D02*
X181873866Y-44509523D01*
X181873866Y-44509523D02*
X181826247Y-44557142D01*
X181826247Y-44557142D02*
X181778628Y-44652380D01*
X181778628Y-44652380D02*
X181731009Y-44842856D01*
X181731009Y-44842856D02*
X181683390Y-44938094D01*
X181683390Y-44938094D02*
X181635771Y-44985713D01*
X181635771Y-44985713D02*
X181540533Y-45033332D01*
X181540533Y-45033332D02*
X181445295Y-45033332D01*
X181445295Y-45033332D02*
X181350057Y-44985713D01*
X181350057Y-44985713D02*
X181302438Y-44938094D01*
X181302438Y-44938094D02*
X181254819Y-44842856D01*
X181254819Y-44842856D02*
X181254819Y-44604761D01*
X181254819Y-44604761D02*
X181302438Y-44461904D01*
X181254819Y-44128570D02*
X182254819Y-43890475D01*
X182254819Y-43890475D02*
X181540533Y-43699999D01*
X181540533Y-43699999D02*
X182254819Y-43509523D01*
X182254819Y-43509523D02*
X181254819Y-43271428D01*
X181588152Y-42461904D02*
X182254819Y-42461904D01*
X181207200Y-42699999D02*
X181921485Y-42938094D01*
X181921485Y-42938094D02*
X181921485Y-42319047D01*
X217107200Y-45033332D02*
X217154819Y-44890475D01*
X217154819Y-44890475D02*
X217154819Y-44652380D01*
X217154819Y-44652380D02*
X217107200Y-44557142D01*
X217107200Y-44557142D02*
X217059580Y-44509523D01*
X217059580Y-44509523D02*
X216964342Y-44461904D01*
X216964342Y-44461904D02*
X216869104Y-44461904D01*
X216869104Y-44461904D02*
X216773866Y-44509523D01*
X216773866Y-44509523D02*
X216726247Y-44557142D01*
X216726247Y-44557142D02*
X216678628Y-44652380D01*
X216678628Y-44652380D02*
X216631009Y-44842856D01*
X216631009Y-44842856D02*
X216583390Y-44938094D01*
X216583390Y-44938094D02*
X216535771Y-44985713D01*
X216535771Y-44985713D02*
X216440533Y-45033332D01*
X216440533Y-45033332D02*
X216345295Y-45033332D01*
X216345295Y-45033332D02*
X216250057Y-44985713D01*
X216250057Y-44985713D02*
X216202438Y-44938094D01*
X216202438Y-44938094D02*
X216154819Y-44842856D01*
X216154819Y-44842856D02*
X216154819Y-44604761D01*
X216154819Y-44604761D02*
X216202438Y-44461904D01*
X216154819Y-44128570D02*
X217154819Y-43890475D01*
X217154819Y-43890475D02*
X216440533Y-43699999D01*
X216440533Y-43699999D02*
X217154819Y-43509523D01*
X217154819Y-43509523D02*
X216154819Y-43271428D01*
X217154819Y-42366666D02*
X217154819Y-42938094D01*
X217154819Y-42652380D02*
X216154819Y-42652380D01*
X216154819Y-42652380D02*
X216297676Y-42747618D01*
X216297676Y-42747618D02*
X216392914Y-42842856D01*
X216392914Y-42842856D02*
X216440533Y-42938094D01*
X235666666Y-36044819D02*
X235666666Y-36759104D01*
X235666666Y-36759104D02*
X235619047Y-36901961D01*
X235619047Y-36901961D02*
X235523809Y-36997200D01*
X235523809Y-36997200D02*
X235380952Y-37044819D01*
X235380952Y-37044819D02*
X235285714Y-37044819D01*
X236047619Y-36044819D02*
X236714285Y-36044819D01*
X236714285Y-36044819D02*
X236285714Y-37044819D01*
X211833333Y-59954819D02*
X211500000Y-59478628D01*
X211261905Y-59954819D02*
X211261905Y-58954819D01*
X211261905Y-58954819D02*
X211642857Y-58954819D01*
X211642857Y-58954819D02*
X211738095Y-59002438D01*
X211738095Y-59002438D02*
X211785714Y-59050057D01*
X211785714Y-59050057D02*
X211833333Y-59145295D01*
X211833333Y-59145295D02*
X211833333Y-59288152D01*
X211833333Y-59288152D02*
X211785714Y-59383390D01*
X211785714Y-59383390D02*
X211738095Y-59431009D01*
X211738095Y-59431009D02*
X211642857Y-59478628D01*
X211642857Y-59478628D02*
X211261905Y-59478628D01*
X212785714Y-59954819D02*
X212214286Y-59954819D01*
X212500000Y-59954819D02*
X212500000Y-58954819D01*
X212500000Y-58954819D02*
X212404762Y-59097676D01*
X212404762Y-59097676D02*
X212309524Y-59192914D01*
X212309524Y-59192914D02*
X212214286Y-59240533D01*
X238654819Y-41853333D02*
X239369104Y-41853333D01*
X239369104Y-41853333D02*
X239511961Y-41900952D01*
X239511961Y-41900952D02*
X239607200Y-41996190D01*
X239607200Y-41996190D02*
X239654819Y-42139047D01*
X239654819Y-42139047D02*
X239654819Y-42234285D01*
X238654819Y-40900952D02*
X238654819Y-41377142D01*
X238654819Y-41377142D02*
X239131009Y-41424761D01*
X239131009Y-41424761D02*
X239083390Y-41377142D01*
X239083390Y-41377142D02*
X239035771Y-41281904D01*
X239035771Y-41281904D02*
X239035771Y-41043809D01*
X239035771Y-41043809D02*
X239083390Y-40948571D01*
X239083390Y-40948571D02*
X239131009Y-40900952D01*
X239131009Y-40900952D02*
X239226247Y-40853333D01*
X239226247Y-40853333D02*
X239464342Y-40853333D01*
X239464342Y-40853333D02*
X239559580Y-40900952D01*
X239559580Y-40900952D02*
X239607200Y-40948571D01*
X239607200Y-40948571D02*
X239654819Y-41043809D01*
X239654819Y-41043809D02*
X239654819Y-41281904D01*
X239654819Y-41281904D02*
X239607200Y-41377142D01*
X239607200Y-41377142D02*
X239559580Y-41424761D01*
X163707200Y-45033332D02*
X163754819Y-44890475D01*
X163754819Y-44890475D02*
X163754819Y-44652380D01*
X163754819Y-44652380D02*
X163707200Y-44557142D01*
X163707200Y-44557142D02*
X163659580Y-44509523D01*
X163659580Y-44509523D02*
X163564342Y-44461904D01*
X163564342Y-44461904D02*
X163469104Y-44461904D01*
X163469104Y-44461904D02*
X163373866Y-44509523D01*
X163373866Y-44509523D02*
X163326247Y-44557142D01*
X163326247Y-44557142D02*
X163278628Y-44652380D01*
X163278628Y-44652380D02*
X163231009Y-44842856D01*
X163231009Y-44842856D02*
X163183390Y-44938094D01*
X163183390Y-44938094D02*
X163135771Y-44985713D01*
X163135771Y-44985713D02*
X163040533Y-45033332D01*
X163040533Y-45033332D02*
X162945295Y-45033332D01*
X162945295Y-45033332D02*
X162850057Y-44985713D01*
X162850057Y-44985713D02*
X162802438Y-44938094D01*
X162802438Y-44938094D02*
X162754819Y-44842856D01*
X162754819Y-44842856D02*
X162754819Y-44604761D01*
X162754819Y-44604761D02*
X162802438Y-44461904D01*
X162754819Y-44128570D02*
X163754819Y-43890475D01*
X163754819Y-43890475D02*
X163040533Y-43699999D01*
X163040533Y-43699999D02*
X163754819Y-43509523D01*
X163754819Y-43509523D02*
X162754819Y-43271428D01*
X162754819Y-42985713D02*
X162754819Y-42366666D01*
X162754819Y-42366666D02*
X163135771Y-42699999D01*
X163135771Y-42699999D02*
X163135771Y-42557142D01*
X163135771Y-42557142D02*
X163183390Y-42461904D01*
X163183390Y-42461904D02*
X163231009Y-42414285D01*
X163231009Y-42414285D02*
X163326247Y-42366666D01*
X163326247Y-42366666D02*
X163564342Y-42366666D01*
X163564342Y-42366666D02*
X163659580Y-42414285D01*
X163659580Y-42414285D02*
X163707200Y-42461904D01*
X163707200Y-42461904D02*
X163754819Y-42557142D01*
X163754819Y-42557142D02*
X163754819Y-42842856D01*
X163754819Y-42842856D02*
X163707200Y-42938094D01*
X163707200Y-42938094D02*
X163659580Y-42985713D01*
X156833333Y-30584819D02*
X156500000Y-30108628D01*
X156261905Y-30584819D02*
X156261905Y-29584819D01*
X156261905Y-29584819D02*
X156642857Y-29584819D01*
X156642857Y-29584819D02*
X156738095Y-29632438D01*
X156738095Y-29632438D02*
X156785714Y-29680057D01*
X156785714Y-29680057D02*
X156833333Y-29775295D01*
X156833333Y-29775295D02*
X156833333Y-29918152D01*
X156833333Y-29918152D02*
X156785714Y-30013390D01*
X156785714Y-30013390D02*
X156738095Y-30061009D01*
X156738095Y-30061009D02*
X156642857Y-30108628D01*
X156642857Y-30108628D02*
X156261905Y-30108628D01*
X157309524Y-30584819D02*
X157500000Y-30584819D01*
X157500000Y-30584819D02*
X157595238Y-30537200D01*
X157595238Y-30537200D02*
X157642857Y-30489580D01*
X157642857Y-30489580D02*
X157738095Y-30346723D01*
X157738095Y-30346723D02*
X157785714Y-30156247D01*
X157785714Y-30156247D02*
X157785714Y-29775295D01*
X157785714Y-29775295D02*
X157738095Y-29680057D01*
X157738095Y-29680057D02*
X157690476Y-29632438D01*
X157690476Y-29632438D02*
X157595238Y-29584819D01*
X157595238Y-29584819D02*
X157404762Y-29584819D01*
X157404762Y-29584819D02*
X157309524Y-29632438D01*
X157309524Y-29632438D02*
X157261905Y-29680057D01*
X157261905Y-29680057D02*
X157214286Y-29775295D01*
X157214286Y-29775295D02*
X157214286Y-30013390D01*
X157214286Y-30013390D02*
X157261905Y-30108628D01*
X157261905Y-30108628D02*
X157309524Y-30156247D01*
X157309524Y-30156247D02*
X157404762Y-30203866D01*
X157404762Y-30203866D02*
X157595238Y-30203866D01*
X157595238Y-30203866D02*
X157690476Y-30156247D01*
X157690476Y-30156247D02*
X157738095Y-30108628D01*
X157738095Y-30108628D02*
X157785714Y-30013390D01*
X185324819Y-60666666D02*
X184848628Y-60999999D01*
X185324819Y-61238094D02*
X184324819Y-61238094D01*
X184324819Y-61238094D02*
X184324819Y-60857142D01*
X184324819Y-60857142D02*
X184372438Y-60761904D01*
X184372438Y-60761904D02*
X184420057Y-60714285D01*
X184420057Y-60714285D02*
X184515295Y-60666666D01*
X184515295Y-60666666D02*
X184658152Y-60666666D01*
X184658152Y-60666666D02*
X184753390Y-60714285D01*
X184753390Y-60714285D02*
X184801009Y-60761904D01*
X184801009Y-60761904D02*
X184848628Y-60857142D01*
X184848628Y-60857142D02*
X184848628Y-61238094D01*
X184753390Y-60095237D02*
X184705771Y-60190475D01*
X184705771Y-60190475D02*
X184658152Y-60238094D01*
X184658152Y-60238094D02*
X184562914Y-60285713D01*
X184562914Y-60285713D02*
X184515295Y-60285713D01*
X184515295Y-60285713D02*
X184420057Y-60238094D01*
X184420057Y-60238094D02*
X184372438Y-60190475D01*
X184372438Y-60190475D02*
X184324819Y-60095237D01*
X184324819Y-60095237D02*
X184324819Y-59904761D01*
X184324819Y-59904761D02*
X184372438Y-59809523D01*
X184372438Y-59809523D02*
X184420057Y-59761904D01*
X184420057Y-59761904D02*
X184515295Y-59714285D01*
X184515295Y-59714285D02*
X184562914Y-59714285D01*
X184562914Y-59714285D02*
X184658152Y-59761904D01*
X184658152Y-59761904D02*
X184705771Y-59809523D01*
X184705771Y-59809523D02*
X184753390Y-59904761D01*
X184753390Y-59904761D02*
X184753390Y-60095237D01*
X184753390Y-60095237D02*
X184801009Y-60190475D01*
X184801009Y-60190475D02*
X184848628Y-60238094D01*
X184848628Y-60238094D02*
X184943866Y-60285713D01*
X184943866Y-60285713D02*
X185134342Y-60285713D01*
X185134342Y-60285713D02*
X185229580Y-60238094D01*
X185229580Y-60238094D02*
X185277200Y-60190475D01*
X185277200Y-60190475D02*
X185324819Y-60095237D01*
X185324819Y-60095237D02*
X185324819Y-59904761D01*
X185324819Y-59904761D02*
X185277200Y-59809523D01*
X185277200Y-59809523D02*
X185229580Y-59761904D01*
X185229580Y-59761904D02*
X185134342Y-59714285D01*
X185134342Y-59714285D02*
X184943866Y-59714285D01*
X184943866Y-59714285D02*
X184848628Y-59761904D01*
X184848628Y-59761904D02*
X184801009Y-59809523D01*
X184801009Y-59809523D02*
X184753390Y-59904761D01*
X200824819Y-52666666D02*
X200348628Y-52999999D01*
X200824819Y-53238094D02*
X199824819Y-53238094D01*
X199824819Y-53238094D02*
X199824819Y-52857142D01*
X199824819Y-52857142D02*
X199872438Y-52761904D01*
X199872438Y-52761904D02*
X199920057Y-52714285D01*
X199920057Y-52714285D02*
X200015295Y-52666666D01*
X200015295Y-52666666D02*
X200158152Y-52666666D01*
X200158152Y-52666666D02*
X200253390Y-52714285D01*
X200253390Y-52714285D02*
X200301009Y-52761904D01*
X200301009Y-52761904D02*
X200348628Y-52857142D01*
X200348628Y-52857142D02*
X200348628Y-53238094D01*
X199824819Y-52333332D02*
X199824819Y-51714285D01*
X199824819Y-51714285D02*
X200205771Y-52047618D01*
X200205771Y-52047618D02*
X200205771Y-51904761D01*
X200205771Y-51904761D02*
X200253390Y-51809523D01*
X200253390Y-51809523D02*
X200301009Y-51761904D01*
X200301009Y-51761904D02*
X200396247Y-51714285D01*
X200396247Y-51714285D02*
X200634342Y-51714285D01*
X200634342Y-51714285D02*
X200729580Y-51761904D01*
X200729580Y-51761904D02*
X200777200Y-51809523D01*
X200777200Y-51809523D02*
X200824819Y-51904761D01*
X200824819Y-51904761D02*
X200824819Y-52190475D01*
X200824819Y-52190475D02*
X200777200Y-52285713D01*
X200777200Y-52285713D02*
X200729580Y-52333332D01*
X156933333Y-48739866D02*
X156933333Y-49873200D01*
X156933333Y-49873200D02*
X157000000Y-50006533D01*
X157000000Y-50006533D02*
X157066666Y-50073200D01*
X157066666Y-50073200D02*
X157200000Y-50139866D01*
X157200000Y-50139866D02*
X157466666Y-50139866D01*
X157466666Y-50139866D02*
X157600000Y-50073200D01*
X157600000Y-50073200D02*
X157666666Y-50006533D01*
X157666666Y-50006533D02*
X157733333Y-49873200D01*
X157733333Y-49873200D02*
X157733333Y-48739866D01*
X158266667Y-48739866D02*
X159133333Y-48739866D01*
X159133333Y-48739866D02*
X158666667Y-49273200D01*
X158666667Y-49273200D02*
X158866667Y-49273200D01*
X158866667Y-49273200D02*
X159000000Y-49339866D01*
X159000000Y-49339866D02*
X159066667Y-49406533D01*
X159066667Y-49406533D02*
X159133333Y-49539866D01*
X159133333Y-49539866D02*
X159133333Y-49873200D01*
X159133333Y-49873200D02*
X159066667Y-50006533D01*
X159066667Y-50006533D02*
X159000000Y-50073200D01*
X159000000Y-50073200D02*
X158866667Y-50139866D01*
X158866667Y-50139866D02*
X158466667Y-50139866D01*
X158466667Y-50139866D02*
X158333333Y-50073200D01*
X158333333Y-50073200D02*
X158266667Y-50006533D01*
X200107200Y-45033332D02*
X200154819Y-44890475D01*
X200154819Y-44890475D02*
X200154819Y-44652380D01*
X200154819Y-44652380D02*
X200107200Y-44557142D01*
X200107200Y-44557142D02*
X200059580Y-44509523D01*
X200059580Y-44509523D02*
X199964342Y-44461904D01*
X199964342Y-44461904D02*
X199869104Y-44461904D01*
X199869104Y-44461904D02*
X199773866Y-44509523D01*
X199773866Y-44509523D02*
X199726247Y-44557142D01*
X199726247Y-44557142D02*
X199678628Y-44652380D01*
X199678628Y-44652380D02*
X199631009Y-44842856D01*
X199631009Y-44842856D02*
X199583390Y-44938094D01*
X199583390Y-44938094D02*
X199535771Y-44985713D01*
X199535771Y-44985713D02*
X199440533Y-45033332D01*
X199440533Y-45033332D02*
X199345295Y-45033332D01*
X199345295Y-45033332D02*
X199250057Y-44985713D01*
X199250057Y-44985713D02*
X199202438Y-44938094D01*
X199202438Y-44938094D02*
X199154819Y-44842856D01*
X199154819Y-44842856D02*
X199154819Y-44604761D01*
X199154819Y-44604761D02*
X199202438Y-44461904D01*
X199154819Y-44128570D02*
X200154819Y-43890475D01*
X200154819Y-43890475D02*
X199440533Y-43699999D01*
X199440533Y-43699999D02*
X200154819Y-43509523D01*
X200154819Y-43509523D02*
X199154819Y-43271428D01*
X199250057Y-42938094D02*
X199202438Y-42890475D01*
X199202438Y-42890475D02*
X199154819Y-42795237D01*
X199154819Y-42795237D02*
X199154819Y-42557142D01*
X199154819Y-42557142D02*
X199202438Y-42461904D01*
X199202438Y-42461904D02*
X199250057Y-42414285D01*
X199250057Y-42414285D02*
X199345295Y-42366666D01*
X199345295Y-42366666D02*
X199440533Y-42366666D01*
X199440533Y-42366666D02*
X199583390Y-42414285D01*
X199583390Y-42414285D02*
X200154819Y-42985713D01*
X200154819Y-42985713D02*
X200154819Y-42366666D01*
X178666666Y-117304819D02*
X178666666Y-118019104D01*
X178666666Y-118019104D02*
X178619047Y-118161961D01*
X178619047Y-118161961D02*
X178523809Y-118257200D01*
X178523809Y-118257200D02*
X178380952Y-118304819D01*
X178380952Y-118304819D02*
X178285714Y-118304819D01*
X179095238Y-117400057D02*
X179142857Y-117352438D01*
X179142857Y-117352438D02*
X179238095Y-117304819D01*
X179238095Y-117304819D02*
X179476190Y-117304819D01*
X179476190Y-117304819D02*
X179571428Y-117352438D01*
X179571428Y-117352438D02*
X179619047Y-117400057D01*
X179619047Y-117400057D02*
X179666666Y-117495295D01*
X179666666Y-117495295D02*
X179666666Y-117590533D01*
X179666666Y-117590533D02*
X179619047Y-117733390D01*
X179619047Y-117733390D02*
X179047619Y-118304819D01*
X179047619Y-118304819D02*
X179666666Y-118304819D01*
X159636666Y-117304819D02*
X159636666Y-118019104D01*
X159636666Y-118019104D02*
X159589047Y-118161961D01*
X159589047Y-118161961D02*
X159493809Y-118257200D01*
X159493809Y-118257200D02*
X159350952Y-118304819D01*
X159350952Y-118304819D02*
X159255714Y-118304819D01*
X160636666Y-118304819D02*
X160065238Y-118304819D01*
X160350952Y-118304819D02*
X160350952Y-117304819D01*
X160350952Y-117304819D02*
X160255714Y-117447676D01*
X160255714Y-117447676D02*
X160160476Y-117542914D01*
X160160476Y-117542914D02*
X160065238Y-117590533D01*
X211643333Y-53324819D02*
X211310000Y-52848628D01*
X211071905Y-53324819D02*
X211071905Y-52324819D01*
X211071905Y-52324819D02*
X211452857Y-52324819D01*
X211452857Y-52324819D02*
X211548095Y-52372438D01*
X211548095Y-52372438D02*
X211595714Y-52420057D01*
X211595714Y-52420057D02*
X211643333Y-52515295D01*
X211643333Y-52515295D02*
X211643333Y-52658152D01*
X211643333Y-52658152D02*
X211595714Y-52753390D01*
X211595714Y-52753390D02*
X211548095Y-52801009D01*
X211548095Y-52801009D02*
X211452857Y-52848628D01*
X211452857Y-52848628D02*
X211071905Y-52848628D01*
X212024286Y-52420057D02*
X212071905Y-52372438D01*
X212071905Y-52372438D02*
X212167143Y-52324819D01*
X212167143Y-52324819D02*
X212405238Y-52324819D01*
X212405238Y-52324819D02*
X212500476Y-52372438D01*
X212500476Y-52372438D02*
X212548095Y-52420057D01*
X212548095Y-52420057D02*
X212595714Y-52515295D01*
X212595714Y-52515295D02*
X212595714Y-52610533D01*
X212595714Y-52610533D02*
X212548095Y-52753390D01*
X212548095Y-52753390D02*
X211976667Y-53324819D01*
X211976667Y-53324819D02*
X212595714Y-53324819D01*
D12*
%TO.C,J4*%
X212380000Y-118690000D02*
X227620000Y-118690000D01*
X212380000Y-125040000D02*
X227620000Y-125040000D01*
X212380000Y-126310000D02*
X212380000Y-118690000D01*
X212380000Y-126310000D02*
X227620000Y-126310000D01*
X227620000Y-126310000D02*
X227620000Y-118690000D01*
%TO.C,J6*%
X233700000Y-114450000D02*
X233700000Y-113400000D01*
X233900000Y-113600000D02*
X236500000Y-113600000D01*
X233900000Y-128300000D02*
X233900000Y-113600000D01*
X234750000Y-113400000D02*
X233700000Y-113400000D01*
X240400000Y-113600000D02*
X243100000Y-113600000D01*
X243100000Y-113600000D02*
X243100000Y-115500000D01*
X243100000Y-119500000D02*
X243100000Y-128300000D01*
X243100000Y-128300000D02*
X233900000Y-128300000D01*
%TO.C,R5*%
X157630000Y-38540000D02*
X157630000Y-45080000D01*
X157630000Y-45080000D02*
X157960000Y-45080000D01*
X157960000Y-38540000D02*
X157630000Y-38540000D01*
X160040000Y-38540000D02*
X160370000Y-38540000D01*
X160370000Y-38540000D02*
X160370000Y-45080000D01*
X160370000Y-45080000D02*
X160040000Y-45080000D01*
%TO.C,R7*%
X181040000Y-49630000D02*
X181040000Y-49960000D01*
X181040000Y-52370000D02*
X181040000Y-52040000D01*
X187580000Y-49630000D02*
X181040000Y-49630000D01*
X187580000Y-49960000D02*
X187580000Y-49630000D01*
X187580000Y-52040000D02*
X187580000Y-52370000D01*
X187580000Y-52370000D02*
X181040000Y-52370000D01*
%TO.C,J3*%
X192300000Y-118690000D02*
X207540000Y-118690000D01*
X192300000Y-125040000D02*
X207540000Y-125040000D01*
X192300000Y-126310000D02*
X192300000Y-118690000D01*
X192300000Y-126310000D02*
X207540000Y-126310000D01*
X207540000Y-126310000D02*
X207540000Y-118690000D01*
%TO.C,U1*%
X219881797Y-96052038D02*
X240863061Y-100511746D01*
X220132262Y-96100164D02*
X220402549Y-94828574D01*
X223218320Y-96756126D02*
X223873972Y-93695565D01*
X223464806Y-86278173D02*
X223523277Y-84603739D01*
X223523277Y-84603739D02*
X224949553Y-77893647D01*
X223570749Y-93631112D02*
X223873972Y-93695565D01*
X224801273Y-86563271D02*
X224959281Y-86596855D01*
X224949553Y-77893647D02*
X225577189Y-76340192D01*
X225516875Y-71788642D02*
X227575201Y-62104978D01*
X226349003Y-76504247D02*
X224236623Y-86442228D01*
X227011792Y-71097752D02*
X227047526Y-71080638D01*
X227069492Y-71097536D02*
X227040446Y-71084030D01*
X227069492Y-71097536D02*
X227047526Y-71080638D01*
X227069492Y-71097536D02*
X227059292Y-71120359D01*
X227285057Y-63465184D02*
X227275728Y-63509078D01*
X227302385Y-63383671D02*
X227295324Y-63416883D01*
X227479663Y-69047599D02*
X227047526Y-71080638D01*
X227536601Y-71184595D02*
X227968735Y-69151554D01*
X227634504Y-62066465D02*
X232427427Y-63085236D01*
X228575558Y-56377591D02*
X229223202Y-53330661D01*
X228977932Y-53258082D02*
X219881797Y-96052038D01*
X229179858Y-58153357D02*
X229013527Y-58935872D01*
X229179858Y-58153357D02*
X230744893Y-58486014D01*
X229326535Y-59002407D02*
X229492863Y-58219887D01*
X230348310Y-72866710D02*
X225555388Y-71847946D01*
X230431885Y-58419485D02*
X230265554Y-59202001D01*
X230578561Y-59268532D02*
X229013527Y-58935872D01*
X230744893Y-58486014D02*
X230578561Y-59268532D01*
X231666504Y-57034591D02*
X228575558Y-56377591D01*
X231666504Y-57034591D02*
X232323505Y-53943647D01*
X232465938Y-63144539D02*
X230407613Y-72828200D01*
X232611948Y-88222457D02*
X223464806Y-86278173D01*
X232611948Y-88222457D02*
X232703945Y-88162715D01*
X232703945Y-88162715D02*
X234784075Y-78376472D01*
X233675439Y-76469578D02*
X243163472Y-78486320D01*
X234536830Y-65202459D02*
X232520087Y-74690489D01*
X234724333Y-78284479D02*
X225577189Y-76340192D01*
X234784075Y-78376472D02*
X234724333Y-78284479D01*
X237478610Y-87968746D02*
X232949789Y-87006119D01*
X237478610Y-87968746D02*
X237653256Y-87147103D01*
X237523729Y-99796835D02*
X238174492Y-96735232D01*
X237653256Y-87147103D02*
X233124431Y-86184474D01*
X237832059Y-86305900D02*
X233303237Y-85343266D01*
X237832059Y-86305900D02*
X238006705Y-85484255D01*
X238006705Y-85484255D02*
X233477880Y-84521624D01*
X238174492Y-96735232D02*
X241265440Y-97392233D01*
X238185508Y-84643047D02*
X233656686Y-83680418D01*
X238185508Y-84643047D02*
X238360152Y-83821404D01*
X238360152Y-83821404D02*
X233831330Y-82858772D01*
X238538960Y-82980196D02*
X234010137Y-82017567D01*
X238538960Y-82980196D02*
X238713604Y-82158552D01*
X238713604Y-82158552D02*
X234184781Y-81195924D01*
X238892409Y-81317345D02*
X234363586Y-80354714D01*
X238892409Y-81317345D02*
X239067053Y-80495702D01*
X239067053Y-80495702D02*
X234538230Y-79533071D01*
X239821710Y-88904963D02*
X240570192Y-85383632D01*
X240074162Y-89520910D02*
X240167723Y-89080744D01*
X240507855Y-86157869D02*
X242757597Y-86636063D01*
X240614674Y-100453836D02*
X241265440Y-97392233D01*
X240688796Y-85306606D02*
X242938537Y-85784804D01*
X240863061Y-100511746D02*
X249959197Y-57717788D01*
X240957785Y-85363783D02*
X241051348Y-84923617D01*
X241051348Y-84923617D02*
X242763105Y-85287461D01*
X241189307Y-85411972D02*
X241096821Y-85392314D01*
X241785920Y-89884755D02*
X240074162Y-89520910D01*
X241879481Y-89444589D02*
X241785920Y-89884755D01*
X242148470Y-89501765D02*
X239898734Y-89023568D01*
X242763105Y-85287461D02*
X242669545Y-85727629D01*
X243015560Y-85903411D02*
X242267078Y-89424740D01*
X244942559Y-77330966D02*
X246959303Y-67842935D01*
X245803948Y-66063846D02*
X236315918Y-64047102D01*
X245967021Y-60074262D02*
X246614667Y-57027331D01*
X249057969Y-60731261D02*
X245967021Y-60074262D01*
X249057969Y-60731261D02*
X249705614Y-57684334D01*
X249959197Y-57717788D02*
X228977932Y-53258082D01*
X225555388Y-71847946D02*
G75*
G02*
X225516862Y-71788639I10403J48925D01*
G01*
X227509696Y-71216093D02*
G75*
G02*
X227562283Y-71214765I-1459J1099991D01*
G01*
X227575201Y-62104978D02*
G75*
G02*
X227634508Y-62066446I48916J-10382D01*
G01*
X230407613Y-72828200D02*
G75*
G02*
X230348315Y-72866688I-48898J10412D01*
G01*
X232427427Y-63085236D02*
G75*
G02*
X232465926Y-63144536I-10387J-48891D01*
G01*
X233675439Y-76469578D02*
G75*
G02*
X232520086Y-74690489I311872J1467224D01*
G01*
X234257267Y-73000349D02*
G75*
G02*
X234196029Y-73124502I-95459J-30094D01*
G01*
X234257268Y-73000348D02*
G75*
G02*
X235436383Y-67453047I5482434J1733638D01*
G01*
X234536830Y-65202459D02*
G75*
G02*
X236315919Y-64047097I1467225J-311863D01*
G01*
X235430937Y-67314722D02*
G75*
G02*
X235436332Y-67453002I-69304J-71949D01*
G01*
X235430937Y-67314722D02*
G75*
G02*
X237881911Y-65723047I1040959J1079987D01*
G01*
X235787707Y-75575471D02*
G75*
G02*
X235926014Y-75570049I71973J-69207D01*
G01*
X235787708Y-75575470D02*
G75*
G02*
X234196029Y-73124502I-1080032J1040927D01*
G01*
X238006057Y-65784287D02*
G75*
G02*
X243553356Y-66963398I1733642J-5482423D01*
G01*
X238006060Y-65784284D02*
G75*
G02*
X237881905Y-65723049I-30094J95465D01*
G01*
X239898734Y-89023568D02*
G75*
G02*
X239821729Y-88904967I20766J97782D01*
G01*
X240570192Y-85383632D02*
G75*
G02*
X240688805Y-85306562I97888J-20843D01*
G01*
X241473332Y-76749138D02*
G75*
G02*
X235926031Y-75570029I-1733639J5482450D01*
G01*
X241473333Y-76749139D02*
G75*
G02*
X241597461Y-76810385I30120J-95364D01*
G01*
X242267078Y-89424740D02*
G75*
G02*
X242148480Y-89501718I-97741J20737D01*
G01*
X242938537Y-85784804D02*
G75*
G02*
X243015579Y-85903415I-20816J-97847D01*
G01*
X243691680Y-66957954D02*
G75*
G02*
X245283360Y-69408924I1080042J-1040922D01*
G01*
X243691683Y-66957952D02*
G75*
G02*
X243553340Y-66963417I-72022J69427D01*
G01*
X244048450Y-75218700D02*
G75*
G02*
X241597496Y-76810373I-1040948J-1079985D01*
G01*
X244048450Y-75218700D02*
G75*
G02*
X244042956Y-75080326I69335J72049D01*
G01*
X244942559Y-77330966D02*
G75*
G02*
X243163474Y-78486313I-1467216J311869D01*
G01*
X245222120Y-69533073D02*
G75*
G02*
X244043005Y-75080369I-5482421J-1733637D01*
G01*
X245222120Y-69533073D02*
G75*
G02*
X245283356Y-69408912I95470J30096D01*
G01*
X245803948Y-66063846D02*
G75*
G02*
X246959304Y-67842935I-311862J-1467220D01*
G01*
X225276315Y-90075571D02*
G75*
G02*
X222078319Y-90075571I-1598998J0D01*
G01*
X222078319Y-90075571D02*
G75*
G02*
X225276315Y-90075571I1598998J0D01*
G01*
X235311949Y-94186059D02*
G75*
G02*
X227311947Y-94186059I-4000001J0D01*
G01*
X227311947Y-94186059D02*
G75*
G02*
X235311949Y-94186059I4000001J0D01*
G01*
X232362563Y-87146174D02*
G75*
G02*
X231612561Y-87146174I-375001J0D01*
G01*
X231612561Y-87146174D02*
G75*
G02*
X232362563Y-87146174I375001J0D01*
G01*
X243155327Y-59680110D02*
G75*
G02*
X235155325Y-59680110I-4000001J0D01*
G01*
X235155325Y-59680110D02*
G75*
G02*
X243155327Y-59680110I4000001J0D01*
G01*
X244989694Y-71266711D02*
G75*
G02*
X234489694Y-71266711I-5250000J0D01*
G01*
X234489694Y-71266711D02*
G75*
G02*
X244989694Y-71266711I5250000J0D01*
G01*
X247762681Y-63694253D02*
G75*
G02*
X244564681Y-63694253I-1599000J0D01*
G01*
X244564681Y-63694253D02*
G75*
G02*
X247762681Y-63694253I1599000J0D01*
G01*
%TO.C,R6*%
X150630000Y-38730000D02*
X150630000Y-45270000D01*
X150630000Y-45270000D02*
X150960000Y-45270000D01*
X150960000Y-38730000D02*
X150630000Y-38730000D01*
X153040000Y-38730000D02*
X153370000Y-38730000D01*
X153370000Y-38730000D02*
X153370000Y-45270000D01*
X153370000Y-45270000D02*
X153040000Y-45270000D01*
%TO.C,R4*%
X187730000Y-52630000D02*
X187730000Y-52960000D01*
X187730000Y-55370000D02*
X187730000Y-55040000D01*
X194270000Y-52630000D02*
X187730000Y-52630000D01*
X194270000Y-52960000D02*
X194270000Y-52630000D01*
X194270000Y-55040000D02*
X194270000Y-55370000D01*
X194270000Y-55370000D02*
X187730000Y-55370000D01*
D13*
%TO.C,U2*%
X151000000Y-71000000D02*
X151000000Y-95000000D01*
X154000000Y-98000000D02*
X213000000Y-98000000D01*
X187900000Y-98000000D02*
X196250000Y-98000000D01*
X200500000Y-98000000D02*
X208850000Y-98000000D01*
X213000000Y-68000000D02*
X154000000Y-68000000D01*
X216000000Y-95000000D02*
X216000000Y-71000000D01*
X151000000Y-71000000D02*
G75*
G02*
X154000000Y-68000000I3000001J-1D01*
G01*
X154000000Y-98000000D02*
G75*
G02*
X151000000Y-95000000I1J3000001D01*
G01*
X213000000Y-68000000D02*
G75*
G02*
X216000000Y-71000000I0J-3000000D01*
G01*
X216000000Y-95000000D02*
G75*
G02*
X213000000Y-98000000I-3000000J0D01*
G01*
D14*
X149310000Y-72770000D02*
G75*
G02*
X149110000Y-72770000I-100000J0D01*
G01*
X149110000Y-72770000D02*
G75*
G02*
X149310000Y-72770000I100000J0D01*
G01*
D12*
%TO.C,SW4*%
X183100000Y-32900000D02*
X185500000Y-32900000D01*
X183100000Y-37000000D02*
X183100000Y-32900000D01*
X183100000Y-41000000D02*
X183100000Y-45100000D01*
X183100000Y-45100000D02*
X194900000Y-45100000D01*
X184900000Y-46200000D02*
X185200000Y-46500000D01*
X184900000Y-46800000D02*
X184900000Y-46200000D01*
X185200000Y-46500000D02*
X184900000Y-46800000D01*
X187700000Y-32900000D02*
X190300000Y-32900000D01*
X188500000Y-39000000D02*
X189500000Y-39000000D01*
X189000000Y-39500000D02*
X189000000Y-38500000D01*
X192500000Y-32900000D02*
X194900000Y-32900000D01*
X194900000Y-32900000D02*
X194900000Y-37000000D01*
X194900000Y-41000000D02*
X194900000Y-45100000D01*
X192000000Y-39000000D02*
G75*
G02*
X186000000Y-39000000I-3000000J0D01*
G01*
X186000000Y-39000000D02*
G75*
G02*
X192000000Y-39000000I3000000J0D01*
G01*
%TO.C,SW1*%
X218000000Y-32900000D02*
X220400000Y-32900000D01*
X218000000Y-37000000D02*
X218000000Y-32900000D01*
X218000000Y-41000000D02*
X218000000Y-45100000D01*
X218000000Y-45100000D02*
X229800000Y-45100000D01*
X219800000Y-46200000D02*
X220100000Y-46500000D01*
X219800000Y-46800000D02*
X219800000Y-46200000D01*
X220100000Y-46500000D02*
X219800000Y-46800000D01*
X222600000Y-32900000D02*
X225200000Y-32900000D01*
X223400000Y-39000000D02*
X224400000Y-39000000D01*
X223900000Y-39500000D02*
X223900000Y-38500000D01*
X227400000Y-32900000D02*
X229800000Y-32900000D01*
X229800000Y-32900000D02*
X229800000Y-37000000D01*
X229800000Y-41000000D02*
X229800000Y-45100000D01*
X226900000Y-39000000D02*
G75*
G02*
X220900000Y-39000000I-3000000J0D01*
G01*
X220900000Y-39000000D02*
G75*
G02*
X226900000Y-39000000I3000000J0D01*
G01*
%TO.C,J7*%
X234670000Y-37590000D02*
X236000000Y-37590000D01*
X234670000Y-38920000D02*
X234670000Y-37590000D01*
X234670000Y-40190000D02*
X234670000Y-47870000D01*
X234670000Y-40190000D02*
X237330000Y-40190000D01*
X234670000Y-47870000D02*
X237330000Y-47870000D01*
X237330000Y-40190000D02*
X237330000Y-47870000D01*
%TO.C,R1*%
X208540000Y-55630000D02*
X208540000Y-55960000D01*
X208540000Y-58370000D02*
X208540000Y-58040000D01*
X215080000Y-55630000D02*
X208540000Y-55630000D01*
X215080000Y-55960000D02*
X215080000Y-55630000D01*
X215080000Y-58040000D02*
X215080000Y-58370000D01*
X215080000Y-58370000D02*
X208540000Y-58370000D01*
%TO.C,J5*%
X240190000Y-51660000D02*
X240190000Y-31340000D01*
X240190000Y-51660000D02*
X247810000Y-51660000D01*
X246540000Y-31340000D02*
X246540000Y-51660000D01*
X247810000Y-31340000D02*
X240190000Y-31340000D01*
X247810000Y-51660000D02*
X247810000Y-31340000D01*
%TO.C,SW3*%
X164600000Y-32900000D02*
X167000000Y-32900000D01*
X164600000Y-37000000D02*
X164600000Y-32900000D01*
X164600000Y-41000000D02*
X164600000Y-45100000D01*
X164600000Y-45100000D02*
X176400000Y-45100000D01*
X166400000Y-46200000D02*
X166700000Y-46500000D01*
X166400000Y-46800000D02*
X166400000Y-46200000D01*
X166700000Y-46500000D02*
X166400000Y-46800000D01*
X169200000Y-32900000D02*
X171800000Y-32900000D01*
X170000000Y-39000000D02*
X171000000Y-39000000D01*
X170500000Y-39500000D02*
X170500000Y-38500000D01*
X174000000Y-32900000D02*
X176400000Y-32900000D01*
X176400000Y-32900000D02*
X176400000Y-37000000D01*
X176400000Y-41000000D02*
X176400000Y-45100000D01*
X173500000Y-39000000D02*
G75*
G02*
X167500000Y-39000000I-3000000J0D01*
G01*
X167500000Y-39000000D02*
G75*
G02*
X173500000Y-39000000I3000000J0D01*
G01*
%TO.C,R9*%
X153730000Y-31130000D02*
X160270000Y-31130000D01*
X153730000Y-31460000D02*
X153730000Y-31130000D01*
X153730000Y-33540000D02*
X153730000Y-33870000D01*
X153730000Y-33870000D02*
X160270000Y-33870000D01*
X160270000Y-31130000D02*
X160270000Y-31460000D01*
X160270000Y-33870000D02*
X160270000Y-33540000D01*
%TO.C,R8*%
X181130000Y-57230000D02*
X181130000Y-63770000D01*
X181130000Y-63770000D02*
X181460000Y-63770000D01*
X181460000Y-57230000D02*
X181130000Y-57230000D01*
X183540000Y-57230000D02*
X183870000Y-57230000D01*
X183870000Y-57230000D02*
X183870000Y-63770000D01*
X183870000Y-63770000D02*
X183540000Y-63770000D01*
%TO.C,R3*%
X196630000Y-49230000D02*
X196630000Y-55770000D01*
X196630000Y-55770000D02*
X196960000Y-55770000D01*
X196960000Y-49230000D02*
X196630000Y-49230000D01*
X199040000Y-49230000D02*
X199370000Y-49230000D01*
X199370000Y-49230000D02*
X199370000Y-55770000D01*
X199370000Y-55770000D02*
X199040000Y-55770000D01*
D13*
%TO.C,U3*%
X150840000Y-50880000D02*
X150840000Y-66120000D01*
X150840000Y-66120000D02*
X171160000Y-66120000D01*
X171160000Y-50880000D02*
X150840000Y-50880000D01*
X171160000Y-66120000D02*
X171160000Y-50880000D01*
D14*
X152210000Y-50290000D02*
G75*
G02*
X152010000Y-50290000I-100000J0D01*
G01*
X152010000Y-50290000D02*
G75*
G02*
X152210000Y-50290000I100000J0D01*
G01*
D12*
%TO.C,SW2*%
X201000000Y-32900000D02*
X203400000Y-32900000D01*
X201000000Y-37000000D02*
X201000000Y-32900000D01*
X201000000Y-41000000D02*
X201000000Y-45100000D01*
X201000000Y-45100000D02*
X212800000Y-45100000D01*
X202800000Y-46200000D02*
X203100000Y-46500000D01*
X202800000Y-46800000D02*
X202800000Y-46200000D01*
X203100000Y-46500000D02*
X202800000Y-46800000D01*
X205600000Y-32900000D02*
X208200000Y-32900000D01*
X206400000Y-39000000D02*
X207400000Y-39000000D01*
X206900000Y-39500000D02*
X206900000Y-38500000D01*
X210400000Y-32900000D02*
X212800000Y-32900000D01*
X212800000Y-32900000D02*
X212800000Y-37000000D01*
X212800000Y-41000000D02*
X212800000Y-45100000D01*
X209900000Y-39000000D02*
G75*
G02*
X203900000Y-39000000I-3000000J0D01*
G01*
X203900000Y-39000000D02*
G75*
G02*
X209900000Y-39000000I3000000J0D01*
G01*
%TO.C,J2*%
X172300000Y-118690000D02*
X187540000Y-118690000D01*
X172300000Y-125040000D02*
X187540000Y-125040000D01*
X172300000Y-126310000D02*
X172300000Y-118690000D01*
X172300000Y-126310000D02*
X187540000Y-126310000D01*
X187540000Y-126310000D02*
X187540000Y-118690000D01*
%TO.C,J1*%
X152380000Y-118690000D02*
X167620000Y-118690000D01*
X152380000Y-125040000D02*
X167620000Y-125040000D01*
X152380000Y-126310000D02*
X152380000Y-118690000D01*
X152380000Y-126310000D02*
X167620000Y-126310000D01*
X167620000Y-126310000D02*
X167620000Y-118690000D01*
%TO.C,R2*%
X208540000Y-49130000D02*
X208540000Y-49460000D01*
X208540000Y-51870000D02*
X208540000Y-51540000D01*
X215080000Y-49130000D02*
X208540000Y-49130000D01*
X215080000Y-49460000D02*
X215080000Y-49130000D01*
X215080000Y-51540000D02*
X215080000Y-51870000D01*
X215080000Y-51870000D02*
X208540000Y-51870000D01*
%TD*%
M02*
