%TF.GenerationSoftware,KiCad,Pcbnew,8.0.5*%
%TF.CreationDate,2025-06-03T16:45:26-04:00*%
%TF.ProjectId,arm,61726d2e-6b69-4636-9164-5f7063625858,rev?*%
%TF.SameCoordinates,Original*%
%TF.FileFunction,Drillmap*%
%TF.FilePolarity,Positive*%
%FSLAX45Y45*%
G04 Gerber Fmt 4.5, Leading zero omitted, Abs format (unit mm)*
G04 Created by KiCad (PCBNEW 8.0.5) date 2025-06-03 16:45:26*
%MOMM*%
%LPD*%
G01*
G04 APERTURE LIST*
%ADD10C,0.050000*%
%ADD11C,0.200000*%
%ADD12C,0.275000*%
G04 APERTURE END LIST*
D10*
X22740000Y-5600000D02*
G75*
G02*
X21780000Y-5600000I-480000J0D01*
G01*
X21780000Y-5600000D02*
G75*
G02*
X22740000Y-5600000I480000J0D01*
G01*
X18071692Y-10349356D02*
G75*
G02*
X17248308Y-10349356I-411692J0D01*
G01*
X17248308Y-10349356D02*
G75*
G02*
X18071692Y-10349356I411692J0D01*
G01*
X15450000Y-11450000D02*
G75*
G02*
X15150000Y-11450000I-150000J0D01*
G01*
X15150000Y-11450000D02*
G75*
G02*
X15450000Y-11450000I150000J0D01*
G01*
X15650000Y-3600000D02*
G75*
G02*
X15350000Y-3600000I-150000J0D01*
G01*
X15350000Y-3600000D02*
G75*
G02*
X15650000Y-3600000I150000J0D01*
G01*
X22960000Y-10380000D02*
G75*
G02*
X21699365Y-10380000I-630317J0D01*
G01*
X21699365Y-10380000D02*
G75*
G02*
X22960000Y-10380000I630317J0D01*
G01*
X24950000Y-11650000D02*
G75*
G02*
X24650000Y-11650000I-150000J0D01*
G01*
X24650000Y-11650000D02*
G75*
G02*
X24950000Y-11650000I150000J0D01*
G01*
X18041865Y-5620000D02*
G75*
G02*
X17158135Y-5620000I-441865J0D01*
G01*
X17158135Y-5620000D02*
G75*
G02*
X18041865Y-5620000I441865J0D01*
G01*
D11*
X15000000Y-3000000D02*
X25000000Y-3000000D01*
X25000000Y-13000000D01*
X15000000Y-13000000D01*
X15000000Y-3000000D01*
D10*
X23750000Y-3450000D02*
G75*
G02*
X23450000Y-3450000I-150000J0D01*
G01*
X23450000Y-3450000D02*
G75*
G02*
X23750000Y-3450000I150000J0D01*
G01*
D11*
D12*
X15312500Y-7012500D02*
X15587500Y-7287500D01*
X15587500Y-7012500D02*
X15312500Y-7287500D01*
X15312500Y-9312500D02*
X15587500Y-9587500D01*
X15587500Y-9312500D02*
X15312500Y-9587500D01*
X21112500Y-7012500D02*
X21387500Y-7287500D01*
X21387500Y-7012500D02*
X21112500Y-7287500D01*
X21112500Y-9312500D02*
X21387500Y-9587500D01*
X21387500Y-9312500D02*
X21112500Y-9587500D01*
D11*
X15250777Y-13321484D02*
X15250777Y-13121484D01*
X15250777Y-13121484D02*
X15298396Y-13121484D01*
X15298396Y-13121484D02*
X15326967Y-13131008D01*
X15326967Y-13131008D02*
X15346015Y-13150055D01*
X15346015Y-13150055D02*
X15355539Y-13169103D01*
X15355539Y-13169103D02*
X15365062Y-13207198D01*
X15365062Y-13207198D02*
X15365062Y-13235769D01*
X15365062Y-13235769D02*
X15355539Y-13273865D01*
X15355539Y-13273865D02*
X15346015Y-13292912D01*
X15346015Y-13292912D02*
X15326967Y-13311960D01*
X15326967Y-13311960D02*
X15298396Y-13321484D01*
X15298396Y-13321484D02*
X15250777Y-13321484D01*
X15450777Y-13321484D02*
X15450777Y-13188150D01*
X15450777Y-13226246D02*
X15460301Y-13207198D01*
X15460301Y-13207198D02*
X15469824Y-13197674D01*
X15469824Y-13197674D02*
X15488872Y-13188150D01*
X15488872Y-13188150D02*
X15507920Y-13188150D01*
X15574586Y-13321484D02*
X15574586Y-13188150D01*
X15574586Y-13121484D02*
X15565062Y-13131008D01*
X15565062Y-13131008D02*
X15574586Y-13140531D01*
X15574586Y-13140531D02*
X15584110Y-13131008D01*
X15584110Y-13131008D02*
X15574586Y-13121484D01*
X15574586Y-13121484D02*
X15574586Y-13140531D01*
X15698396Y-13321484D02*
X15679348Y-13311960D01*
X15679348Y-13311960D02*
X15669824Y-13292912D01*
X15669824Y-13292912D02*
X15669824Y-13121484D01*
X15803158Y-13321484D02*
X15784110Y-13311960D01*
X15784110Y-13311960D02*
X15774586Y-13292912D01*
X15774586Y-13292912D02*
X15774586Y-13121484D01*
X16031729Y-13321484D02*
X16031729Y-13121484D01*
X16031729Y-13121484D02*
X16098396Y-13264341D01*
X16098396Y-13264341D02*
X16165062Y-13121484D01*
X16165062Y-13121484D02*
X16165062Y-13321484D01*
X16346015Y-13321484D02*
X16346015Y-13216722D01*
X16346015Y-13216722D02*
X16336491Y-13197674D01*
X16336491Y-13197674D02*
X16317443Y-13188150D01*
X16317443Y-13188150D02*
X16279348Y-13188150D01*
X16279348Y-13188150D02*
X16260301Y-13197674D01*
X16346015Y-13311960D02*
X16326967Y-13321484D01*
X16326967Y-13321484D02*
X16279348Y-13321484D01*
X16279348Y-13321484D02*
X16260301Y-13311960D01*
X16260301Y-13311960D02*
X16250777Y-13292912D01*
X16250777Y-13292912D02*
X16250777Y-13273865D01*
X16250777Y-13273865D02*
X16260301Y-13254817D01*
X16260301Y-13254817D02*
X16279348Y-13245293D01*
X16279348Y-13245293D02*
X16326967Y-13245293D01*
X16326967Y-13245293D02*
X16346015Y-13235769D01*
X16441253Y-13188150D02*
X16441253Y-13388150D01*
X16441253Y-13197674D02*
X16460301Y-13188150D01*
X16460301Y-13188150D02*
X16498396Y-13188150D01*
X16498396Y-13188150D02*
X16517443Y-13197674D01*
X16517443Y-13197674D02*
X16526967Y-13207198D01*
X16526967Y-13207198D02*
X16536491Y-13226246D01*
X16536491Y-13226246D02*
X16536491Y-13283388D01*
X16536491Y-13283388D02*
X16526967Y-13302436D01*
X16526967Y-13302436D02*
X16517443Y-13311960D01*
X16517443Y-13311960D02*
X16498396Y-13321484D01*
X16498396Y-13321484D02*
X16460301Y-13321484D01*
X16460301Y-13321484D02*
X16441253Y-13311960D01*
X16622205Y-13302436D02*
X16631729Y-13311960D01*
X16631729Y-13311960D02*
X16622205Y-13321484D01*
X16622205Y-13321484D02*
X16612682Y-13311960D01*
X16612682Y-13311960D02*
X16622205Y-13302436D01*
X16622205Y-13302436D02*
X16622205Y-13321484D01*
X16622205Y-13197674D02*
X16631729Y-13207198D01*
X16631729Y-13207198D02*
X16622205Y-13216722D01*
X16622205Y-13216722D02*
X16612682Y-13207198D01*
X16612682Y-13207198D02*
X16622205Y-13197674D01*
X16622205Y-13197674D02*
X16622205Y-13216722D01*
X14790000Y-13550000D02*
X14990000Y-13750000D01*
X14990000Y-13550000D02*
X14790000Y-13750000D01*
X15241253Y-13560531D02*
X15250777Y-13551008D01*
X15250777Y-13551008D02*
X15269824Y-13541484D01*
X15269824Y-13541484D02*
X15317443Y-13541484D01*
X15317443Y-13541484D02*
X15336491Y-13551008D01*
X15336491Y-13551008D02*
X15346015Y-13560531D01*
X15346015Y-13560531D02*
X15355539Y-13579579D01*
X15355539Y-13579579D02*
X15355539Y-13598627D01*
X15355539Y-13598627D02*
X15346015Y-13627198D01*
X15346015Y-13627198D02*
X15231729Y-13741484D01*
X15231729Y-13741484D02*
X15355539Y-13741484D01*
X15441253Y-13722436D02*
X15450777Y-13731960D01*
X15450777Y-13731960D02*
X15441253Y-13741484D01*
X15441253Y-13741484D02*
X15431729Y-13731960D01*
X15431729Y-13731960D02*
X15441253Y-13722436D01*
X15441253Y-13722436D02*
X15441253Y-13741484D01*
X15517443Y-13541484D02*
X15650777Y-13541484D01*
X15650777Y-13541484D02*
X15565062Y-13741484D01*
X15822205Y-13541484D02*
X15726967Y-13541484D01*
X15726967Y-13541484D02*
X15717443Y-13636722D01*
X15717443Y-13636722D02*
X15726967Y-13627198D01*
X15726967Y-13627198D02*
X15746015Y-13617674D01*
X15746015Y-13617674D02*
X15793634Y-13617674D01*
X15793634Y-13617674D02*
X15812682Y-13627198D01*
X15812682Y-13627198D02*
X15822205Y-13636722D01*
X15822205Y-13636722D02*
X15831729Y-13655769D01*
X15831729Y-13655769D02*
X15831729Y-13703388D01*
X15831729Y-13703388D02*
X15822205Y-13722436D01*
X15822205Y-13722436D02*
X15812682Y-13731960D01*
X15812682Y-13731960D02*
X15793634Y-13741484D01*
X15793634Y-13741484D02*
X15746015Y-13741484D01*
X15746015Y-13741484D02*
X15726967Y-13731960D01*
X15726967Y-13731960D02*
X15717443Y-13722436D01*
X15955539Y-13541484D02*
X15974586Y-13541484D01*
X15974586Y-13541484D02*
X15993634Y-13551008D01*
X15993634Y-13551008D02*
X16003158Y-13560531D01*
X16003158Y-13560531D02*
X16012682Y-13579579D01*
X16012682Y-13579579D02*
X16022205Y-13617674D01*
X16022205Y-13617674D02*
X16022205Y-13665293D01*
X16022205Y-13665293D02*
X16012682Y-13703388D01*
X16012682Y-13703388D02*
X16003158Y-13722436D01*
X16003158Y-13722436D02*
X15993634Y-13731960D01*
X15993634Y-13731960D02*
X15974586Y-13741484D01*
X15974586Y-13741484D02*
X15955539Y-13741484D01*
X15955539Y-13741484D02*
X15936491Y-13731960D01*
X15936491Y-13731960D02*
X15926967Y-13722436D01*
X15926967Y-13722436D02*
X15917443Y-13703388D01*
X15917443Y-13703388D02*
X15907920Y-13665293D01*
X15907920Y-13665293D02*
X15907920Y-13617674D01*
X15907920Y-13617674D02*
X15917443Y-13579579D01*
X15917443Y-13579579D02*
X15926967Y-13560531D01*
X15926967Y-13560531D02*
X15936491Y-13551008D01*
X15936491Y-13551008D02*
X15955539Y-13541484D01*
X16107920Y-13741484D02*
X16107920Y-13608150D01*
X16107920Y-13627198D02*
X16117443Y-13617674D01*
X16117443Y-13617674D02*
X16136491Y-13608150D01*
X16136491Y-13608150D02*
X16165063Y-13608150D01*
X16165063Y-13608150D02*
X16184110Y-13617674D01*
X16184110Y-13617674D02*
X16193634Y-13636722D01*
X16193634Y-13636722D02*
X16193634Y-13741484D01*
X16193634Y-13636722D02*
X16203158Y-13617674D01*
X16203158Y-13617674D02*
X16222205Y-13608150D01*
X16222205Y-13608150D02*
X16250777Y-13608150D01*
X16250777Y-13608150D02*
X16269824Y-13617674D01*
X16269824Y-13617674D02*
X16279348Y-13636722D01*
X16279348Y-13636722D02*
X16279348Y-13741484D01*
X16374586Y-13741484D02*
X16374586Y-13608150D01*
X16374586Y-13627198D02*
X16384110Y-13617674D01*
X16384110Y-13617674D02*
X16403158Y-13608150D01*
X16403158Y-13608150D02*
X16431729Y-13608150D01*
X16431729Y-13608150D02*
X16450777Y-13617674D01*
X16450777Y-13617674D02*
X16460301Y-13636722D01*
X16460301Y-13636722D02*
X16460301Y-13741484D01*
X16460301Y-13636722D02*
X16469824Y-13617674D01*
X16469824Y-13617674D02*
X16488872Y-13608150D01*
X16488872Y-13608150D02*
X16517443Y-13608150D01*
X16517443Y-13608150D02*
X16536491Y-13617674D01*
X16536491Y-13617674D02*
X16546015Y-13636722D01*
X16546015Y-13636722D02*
X16546015Y-13741484D01*
X16936491Y-13531960D02*
X16765063Y-13789103D01*
X17193634Y-13541484D02*
X17212682Y-13541484D01*
X17212682Y-13541484D02*
X17231729Y-13551008D01*
X17231729Y-13551008D02*
X17241253Y-13560531D01*
X17241253Y-13560531D02*
X17250777Y-13579579D01*
X17250777Y-13579579D02*
X17260301Y-13617674D01*
X17260301Y-13617674D02*
X17260301Y-13665293D01*
X17260301Y-13665293D02*
X17250777Y-13703388D01*
X17250777Y-13703388D02*
X17241253Y-13722436D01*
X17241253Y-13722436D02*
X17231729Y-13731960D01*
X17231729Y-13731960D02*
X17212682Y-13741484D01*
X17212682Y-13741484D02*
X17193634Y-13741484D01*
X17193634Y-13741484D02*
X17174587Y-13731960D01*
X17174587Y-13731960D02*
X17165063Y-13722436D01*
X17165063Y-13722436D02*
X17155539Y-13703388D01*
X17155539Y-13703388D02*
X17146015Y-13665293D01*
X17146015Y-13665293D02*
X17146015Y-13617674D01*
X17146015Y-13617674D02*
X17155539Y-13579579D01*
X17155539Y-13579579D02*
X17165063Y-13560531D01*
X17165063Y-13560531D02*
X17174587Y-13551008D01*
X17174587Y-13551008D02*
X17193634Y-13541484D01*
X17346015Y-13722436D02*
X17355539Y-13731960D01*
X17355539Y-13731960D02*
X17346015Y-13741484D01*
X17346015Y-13741484D02*
X17336491Y-13731960D01*
X17336491Y-13731960D02*
X17346015Y-13722436D01*
X17346015Y-13722436D02*
X17346015Y-13741484D01*
X17546015Y-13741484D02*
X17431729Y-13741484D01*
X17488872Y-13741484D02*
X17488872Y-13541484D01*
X17488872Y-13541484D02*
X17469825Y-13570055D01*
X17469825Y-13570055D02*
X17450777Y-13589103D01*
X17450777Y-13589103D02*
X17431729Y-13598627D01*
X17669825Y-13541484D02*
X17688872Y-13541484D01*
X17688872Y-13541484D02*
X17707920Y-13551008D01*
X17707920Y-13551008D02*
X17717444Y-13560531D01*
X17717444Y-13560531D02*
X17726968Y-13579579D01*
X17726968Y-13579579D02*
X17736491Y-13617674D01*
X17736491Y-13617674D02*
X17736491Y-13665293D01*
X17736491Y-13665293D02*
X17726968Y-13703388D01*
X17726968Y-13703388D02*
X17717444Y-13722436D01*
X17717444Y-13722436D02*
X17707920Y-13731960D01*
X17707920Y-13731960D02*
X17688872Y-13741484D01*
X17688872Y-13741484D02*
X17669825Y-13741484D01*
X17669825Y-13741484D02*
X17650777Y-13731960D01*
X17650777Y-13731960D02*
X17641253Y-13722436D01*
X17641253Y-13722436D02*
X17631729Y-13703388D01*
X17631729Y-13703388D02*
X17622206Y-13665293D01*
X17622206Y-13665293D02*
X17622206Y-13617674D01*
X17622206Y-13617674D02*
X17631729Y-13579579D01*
X17631729Y-13579579D02*
X17641253Y-13560531D01*
X17641253Y-13560531D02*
X17650777Y-13551008D01*
X17650777Y-13551008D02*
X17669825Y-13541484D01*
X17850777Y-13627198D02*
X17831729Y-13617674D01*
X17831729Y-13617674D02*
X17822206Y-13608150D01*
X17822206Y-13608150D02*
X17812682Y-13589103D01*
X17812682Y-13589103D02*
X17812682Y-13579579D01*
X17812682Y-13579579D02*
X17822206Y-13560531D01*
X17822206Y-13560531D02*
X17831729Y-13551008D01*
X17831729Y-13551008D02*
X17850777Y-13541484D01*
X17850777Y-13541484D02*
X17888872Y-13541484D01*
X17888872Y-13541484D02*
X17907920Y-13551008D01*
X17907920Y-13551008D02*
X17917444Y-13560531D01*
X17917444Y-13560531D02*
X17926968Y-13579579D01*
X17926968Y-13579579D02*
X17926968Y-13589103D01*
X17926968Y-13589103D02*
X17917444Y-13608150D01*
X17917444Y-13608150D02*
X17907920Y-13617674D01*
X17907920Y-13617674D02*
X17888872Y-13627198D01*
X17888872Y-13627198D02*
X17850777Y-13627198D01*
X17850777Y-13627198D02*
X17831729Y-13636722D01*
X17831729Y-13636722D02*
X17822206Y-13646246D01*
X17822206Y-13646246D02*
X17812682Y-13665293D01*
X17812682Y-13665293D02*
X17812682Y-13703388D01*
X17812682Y-13703388D02*
X17822206Y-13722436D01*
X17822206Y-13722436D02*
X17831729Y-13731960D01*
X17831729Y-13731960D02*
X17850777Y-13741484D01*
X17850777Y-13741484D02*
X17888872Y-13741484D01*
X17888872Y-13741484D02*
X17907920Y-13731960D01*
X17907920Y-13731960D02*
X17917444Y-13722436D01*
X17917444Y-13722436D02*
X17926968Y-13703388D01*
X17926968Y-13703388D02*
X17926968Y-13665293D01*
X17926968Y-13665293D02*
X17917444Y-13646246D01*
X17917444Y-13646246D02*
X17907920Y-13636722D01*
X17907920Y-13636722D02*
X17888872Y-13627198D01*
X17993634Y-13541484D02*
X18117444Y-13541484D01*
X18117444Y-13541484D02*
X18050777Y-13617674D01*
X18050777Y-13617674D02*
X18079349Y-13617674D01*
X18079349Y-13617674D02*
X18098396Y-13627198D01*
X18098396Y-13627198D02*
X18107920Y-13636722D01*
X18107920Y-13636722D02*
X18117444Y-13655769D01*
X18117444Y-13655769D02*
X18117444Y-13703388D01*
X18117444Y-13703388D02*
X18107920Y-13722436D01*
X18107920Y-13722436D02*
X18098396Y-13731960D01*
X18098396Y-13731960D02*
X18079349Y-13741484D01*
X18079349Y-13741484D02*
X18022206Y-13741484D01*
X18022206Y-13741484D02*
X18003158Y-13731960D01*
X18003158Y-13731960D02*
X17993634Y-13722436D01*
X18193634Y-13541484D02*
X18193634Y-13579579D01*
X18269825Y-13541484D02*
X18269825Y-13579579D01*
X18565063Y-13817674D02*
X18555539Y-13808150D01*
X18555539Y-13808150D02*
X18536491Y-13779579D01*
X18536491Y-13779579D02*
X18526968Y-13760531D01*
X18526968Y-13760531D02*
X18517444Y-13731960D01*
X18517444Y-13731960D02*
X18507920Y-13684341D01*
X18507920Y-13684341D02*
X18507920Y-13646246D01*
X18507920Y-13646246D02*
X18517444Y-13598627D01*
X18517444Y-13598627D02*
X18526968Y-13570055D01*
X18526968Y-13570055D02*
X18536491Y-13551008D01*
X18536491Y-13551008D02*
X18555539Y-13522436D01*
X18555539Y-13522436D02*
X18565063Y-13512912D01*
X18726968Y-13608150D02*
X18726968Y-13741484D01*
X18679349Y-13531960D02*
X18631730Y-13674817D01*
X18631730Y-13674817D02*
X18755539Y-13674817D01*
X18984111Y-13741484D02*
X18984111Y-13541484D01*
X19069825Y-13741484D02*
X19069825Y-13636722D01*
X19069825Y-13636722D02*
X19060301Y-13617674D01*
X19060301Y-13617674D02*
X19041253Y-13608150D01*
X19041253Y-13608150D02*
X19012682Y-13608150D01*
X19012682Y-13608150D02*
X18993634Y-13617674D01*
X18993634Y-13617674D02*
X18984111Y-13627198D01*
X19193634Y-13741484D02*
X19174587Y-13731960D01*
X19174587Y-13731960D02*
X19165063Y-13722436D01*
X19165063Y-13722436D02*
X19155539Y-13703388D01*
X19155539Y-13703388D02*
X19155539Y-13646246D01*
X19155539Y-13646246D02*
X19165063Y-13627198D01*
X19165063Y-13627198D02*
X19174587Y-13617674D01*
X19174587Y-13617674D02*
X19193634Y-13608150D01*
X19193634Y-13608150D02*
X19222206Y-13608150D01*
X19222206Y-13608150D02*
X19241253Y-13617674D01*
X19241253Y-13617674D02*
X19250777Y-13627198D01*
X19250777Y-13627198D02*
X19260301Y-13646246D01*
X19260301Y-13646246D02*
X19260301Y-13703388D01*
X19260301Y-13703388D02*
X19250777Y-13722436D01*
X19250777Y-13722436D02*
X19241253Y-13731960D01*
X19241253Y-13731960D02*
X19222206Y-13741484D01*
X19222206Y-13741484D02*
X19193634Y-13741484D01*
X19374587Y-13741484D02*
X19355539Y-13731960D01*
X19355539Y-13731960D02*
X19346015Y-13712912D01*
X19346015Y-13712912D02*
X19346015Y-13541484D01*
X19526968Y-13731960D02*
X19507920Y-13741484D01*
X19507920Y-13741484D02*
X19469825Y-13741484D01*
X19469825Y-13741484D02*
X19450777Y-13731960D01*
X19450777Y-13731960D02*
X19441253Y-13712912D01*
X19441253Y-13712912D02*
X19441253Y-13636722D01*
X19441253Y-13636722D02*
X19450777Y-13617674D01*
X19450777Y-13617674D02*
X19469825Y-13608150D01*
X19469825Y-13608150D02*
X19507920Y-13608150D01*
X19507920Y-13608150D02*
X19526968Y-13617674D01*
X19526968Y-13617674D02*
X19536492Y-13636722D01*
X19536492Y-13636722D02*
X19536492Y-13655769D01*
X19536492Y-13655769D02*
X19441253Y-13674817D01*
X19612682Y-13731960D02*
X19631730Y-13741484D01*
X19631730Y-13741484D02*
X19669825Y-13741484D01*
X19669825Y-13741484D02*
X19688873Y-13731960D01*
X19688873Y-13731960D02*
X19698396Y-13712912D01*
X19698396Y-13712912D02*
X19698396Y-13703388D01*
X19698396Y-13703388D02*
X19688873Y-13684341D01*
X19688873Y-13684341D02*
X19669825Y-13674817D01*
X19669825Y-13674817D02*
X19641253Y-13674817D01*
X19641253Y-13674817D02*
X19622206Y-13665293D01*
X19622206Y-13665293D02*
X19612682Y-13646246D01*
X19612682Y-13646246D02*
X19612682Y-13636722D01*
X19612682Y-13636722D02*
X19622206Y-13617674D01*
X19622206Y-13617674D02*
X19641253Y-13608150D01*
X19641253Y-13608150D02*
X19669825Y-13608150D01*
X19669825Y-13608150D02*
X19688873Y-13617674D01*
X19765063Y-13817674D02*
X19774587Y-13808150D01*
X19774587Y-13808150D02*
X19793634Y-13779579D01*
X19793634Y-13779579D02*
X19803158Y-13760531D01*
X19803158Y-13760531D02*
X19812682Y-13731960D01*
X19812682Y-13731960D02*
X19822206Y-13684341D01*
X19822206Y-13684341D02*
X19822206Y-13646246D01*
X19822206Y-13646246D02*
X19812682Y-13598627D01*
X19812682Y-13598627D02*
X19803158Y-13570055D01*
X19803158Y-13570055D02*
X19793634Y-13551008D01*
X19793634Y-13551008D02*
X19774587Y-13522436D01*
X19774587Y-13522436D02*
X19765063Y-13512912D01*
X20126968Y-13817674D02*
X20117444Y-13808150D01*
X20117444Y-13808150D02*
X20098396Y-13779579D01*
X20098396Y-13779579D02*
X20088873Y-13760531D01*
X20088873Y-13760531D02*
X20079349Y-13731960D01*
X20079349Y-13731960D02*
X20069825Y-13684341D01*
X20069825Y-13684341D02*
X20069825Y-13646246D01*
X20069825Y-13646246D02*
X20079349Y-13598627D01*
X20079349Y-13598627D02*
X20088873Y-13570055D01*
X20088873Y-13570055D02*
X20098396Y-13551008D01*
X20098396Y-13551008D02*
X20117444Y-13522436D01*
X20117444Y-13522436D02*
X20126968Y-13512912D01*
X20203158Y-13608150D02*
X20203158Y-13741484D01*
X20203158Y-13627198D02*
X20212682Y-13617674D01*
X20212682Y-13617674D02*
X20231730Y-13608150D01*
X20231730Y-13608150D02*
X20260301Y-13608150D01*
X20260301Y-13608150D02*
X20279349Y-13617674D01*
X20279349Y-13617674D02*
X20288873Y-13636722D01*
X20288873Y-13636722D02*
X20288873Y-13741484D01*
X20412682Y-13741484D02*
X20393634Y-13731960D01*
X20393634Y-13731960D02*
X20384111Y-13722436D01*
X20384111Y-13722436D02*
X20374587Y-13703388D01*
X20374587Y-13703388D02*
X20374587Y-13646246D01*
X20374587Y-13646246D02*
X20384111Y-13627198D01*
X20384111Y-13627198D02*
X20393634Y-13617674D01*
X20393634Y-13617674D02*
X20412682Y-13608150D01*
X20412682Y-13608150D02*
X20441254Y-13608150D01*
X20441254Y-13608150D02*
X20460301Y-13617674D01*
X20460301Y-13617674D02*
X20469825Y-13627198D01*
X20469825Y-13627198D02*
X20479349Y-13646246D01*
X20479349Y-13646246D02*
X20479349Y-13703388D01*
X20479349Y-13703388D02*
X20469825Y-13722436D01*
X20469825Y-13722436D02*
X20460301Y-13731960D01*
X20460301Y-13731960D02*
X20441254Y-13741484D01*
X20441254Y-13741484D02*
X20412682Y-13741484D01*
X20536492Y-13608150D02*
X20612682Y-13608150D01*
X20565063Y-13541484D02*
X20565063Y-13712912D01*
X20565063Y-13712912D02*
X20574587Y-13731960D01*
X20574587Y-13731960D02*
X20593634Y-13741484D01*
X20593634Y-13741484D02*
X20612682Y-13741484D01*
X20831730Y-13608150D02*
X20831730Y-13808150D01*
X20831730Y-13617674D02*
X20850777Y-13608150D01*
X20850777Y-13608150D02*
X20888873Y-13608150D01*
X20888873Y-13608150D02*
X20907920Y-13617674D01*
X20907920Y-13617674D02*
X20917444Y-13627198D01*
X20917444Y-13627198D02*
X20926968Y-13646246D01*
X20926968Y-13646246D02*
X20926968Y-13703388D01*
X20926968Y-13703388D02*
X20917444Y-13722436D01*
X20917444Y-13722436D02*
X20907920Y-13731960D01*
X20907920Y-13731960D02*
X20888873Y-13741484D01*
X20888873Y-13741484D02*
X20850777Y-13741484D01*
X20850777Y-13741484D02*
X20831730Y-13731960D01*
X21041254Y-13741484D02*
X21022206Y-13731960D01*
X21022206Y-13731960D02*
X21012682Y-13712912D01*
X21012682Y-13712912D02*
X21012682Y-13541484D01*
X21203158Y-13741484D02*
X21203158Y-13636722D01*
X21203158Y-13636722D02*
X21193635Y-13617674D01*
X21193635Y-13617674D02*
X21174587Y-13608150D01*
X21174587Y-13608150D02*
X21136492Y-13608150D01*
X21136492Y-13608150D02*
X21117444Y-13617674D01*
X21203158Y-13731960D02*
X21184111Y-13741484D01*
X21184111Y-13741484D02*
X21136492Y-13741484D01*
X21136492Y-13741484D02*
X21117444Y-13731960D01*
X21117444Y-13731960D02*
X21107920Y-13712912D01*
X21107920Y-13712912D02*
X21107920Y-13693865D01*
X21107920Y-13693865D02*
X21117444Y-13674817D01*
X21117444Y-13674817D02*
X21136492Y-13665293D01*
X21136492Y-13665293D02*
X21184111Y-13665293D01*
X21184111Y-13665293D02*
X21203158Y-13655769D01*
X21269825Y-13608150D02*
X21346015Y-13608150D01*
X21298396Y-13541484D02*
X21298396Y-13712912D01*
X21298396Y-13712912D02*
X21307920Y-13731960D01*
X21307920Y-13731960D02*
X21326968Y-13741484D01*
X21326968Y-13741484D02*
X21346015Y-13741484D01*
X21488873Y-13731960D02*
X21469825Y-13741484D01*
X21469825Y-13741484D02*
X21431730Y-13741484D01*
X21431730Y-13741484D02*
X21412682Y-13731960D01*
X21412682Y-13731960D02*
X21403158Y-13712912D01*
X21403158Y-13712912D02*
X21403158Y-13636722D01*
X21403158Y-13636722D02*
X21412682Y-13617674D01*
X21412682Y-13617674D02*
X21431730Y-13608150D01*
X21431730Y-13608150D02*
X21469825Y-13608150D01*
X21469825Y-13608150D02*
X21488873Y-13617674D01*
X21488873Y-13617674D02*
X21498396Y-13636722D01*
X21498396Y-13636722D02*
X21498396Y-13655769D01*
X21498396Y-13655769D02*
X21403158Y-13674817D01*
X21669825Y-13741484D02*
X21669825Y-13541484D01*
X21669825Y-13731960D02*
X21650777Y-13741484D01*
X21650777Y-13741484D02*
X21612682Y-13741484D01*
X21612682Y-13741484D02*
X21593635Y-13731960D01*
X21593635Y-13731960D02*
X21584111Y-13722436D01*
X21584111Y-13722436D02*
X21574587Y-13703388D01*
X21574587Y-13703388D02*
X21574587Y-13646246D01*
X21574587Y-13646246D02*
X21584111Y-13627198D01*
X21584111Y-13627198D02*
X21593635Y-13617674D01*
X21593635Y-13617674D02*
X21612682Y-13608150D01*
X21612682Y-13608150D02*
X21650777Y-13608150D01*
X21650777Y-13608150D02*
X21669825Y-13617674D01*
X21746016Y-13817674D02*
X21755539Y-13808150D01*
X21755539Y-13808150D02*
X21774587Y-13779579D01*
X21774587Y-13779579D02*
X21784111Y-13760531D01*
X21784111Y-13760531D02*
X21793635Y-13731960D01*
X21793635Y-13731960D02*
X21803158Y-13684341D01*
X21803158Y-13684341D02*
X21803158Y-13646246D01*
X21803158Y-13646246D02*
X21793635Y-13598627D01*
X21793635Y-13598627D02*
X21784111Y-13570055D01*
X21784111Y-13570055D02*
X21774587Y-13551008D01*
X21774587Y-13551008D02*
X21755539Y-13522436D01*
X21755539Y-13522436D02*
X21746016Y-13512912D01*
M02*
