M48
; DRILL file {KiCad 8.0.5} date 2025-06-03T16:45:24-0400
; FORMAT={-:-/ absolute / inch / decimal}
; #@! TF.CreationDate,2025-06-03T16:45:24-04:00
; #@! TF.GenerationSoftware,Kicad,Pcbnew,8.0.5
; #@! TF.FileFunction,Plated,1,2,PTH
FMAT,2
INCH
; #@! TA.AperFunction,Plated,PTH,ViaDrill
T1C0.0118
; #@! TA.AperFunction,Plated,PTH,ComponentDrill
T2C0.0315
; #@! TA.AperFunction,Plated,PTH,ComponentDrill
T3C0.0394
; #@! TA.AperFunction,Plated,PTH,ComponentDrill
T4C0.0400
; #@! TA.AperFunction,Plated,PTH,ComponentDrill
T5C0.0591
; #@! TA.AperFunction,Plated,PTH,ComponentDrill
T6C0.0598
%
G90
G05
T1
X6.063Y-2.9921
X6.1024Y-3.189
X6.6142Y-2.6378
X7.2441Y-2.6378
X7.6772Y-2.5197
X7.7165Y-2.6772
X7.9724Y-2.5
X8.2159Y-2.3819
T2
X5.9843Y-1.5035
X5.9843Y-1.8035
X6.0311Y-1.2795
X6.2598Y-1.4961
X6.2598Y-1.7961
X6.3311Y-1.2795
X7.1063Y-2.0079
X7.185Y-2.2319
X7.185Y-2.5319
X7.3697Y-2.126
X7.4063Y-2.0079
X7.6697Y-2.126
X7.7953Y-1.9169
X7.7953Y-2.2169
X8.189Y-1.9882
X8.189Y-2.2441
X8.489Y-1.9882
X8.489Y-2.2441
T3
X6.2744Y-2.765
X6.2744Y-2.865
X6.3744Y-2.765
X6.3744Y-2.865
X6.4744Y-2.765
X6.4744Y-2.865
X6.5744Y-2.765
X6.5744Y-2.865
X6.6142Y-1.2598
X6.6142Y-1.8307
X6.6744Y-2.765
X6.6744Y-2.865
X6.7126Y-1.8307
X6.7744Y-2.765
X6.7744Y-2.865
X6.811Y-1.2598
X6.811Y-1.8307
X6.8744Y-2.765
X6.8744Y-2.865
X6.9744Y-2.765
X6.9744Y-2.865
X7.0744Y-2.765
X7.0744Y-2.865
X7.1744Y-2.765
X7.1744Y-2.865
X7.2744Y-2.765
X7.2744Y-2.865
X7.3425Y-1.2598
X7.3425Y-1.8307
X7.3744Y-2.765
X7.3744Y-2.865
X7.4409Y-1.8307
X7.4744Y-2.765
X7.4744Y-2.865
X7.5394Y-1.2598
X7.5394Y-1.8307
X7.5744Y-2.765
X7.5744Y-2.865
X7.6744Y-2.765
X7.6744Y-2.865
X7.7744Y-2.765
X7.7744Y-2.865
X7.8744Y-2.765
X7.8744Y-2.865
X7.9744Y-2.765
X7.9744Y-2.865
X8.0472Y-1.2598
X8.0472Y-1.8307
X8.0744Y-2.765
X8.0744Y-2.865
X8.1457Y-1.8307
X8.1744Y-2.765
X8.1744Y-2.865
X8.2441Y-1.2598
X8.2441Y-1.8307
X8.7165Y-1.2598
X8.7165Y-1.8307
X8.7402Y-3.7367
X8.815Y-1.8307
X8.9134Y-1.2598
X8.9134Y-1.8307
X9.0728Y-2.1717
X9.2913Y-1.5323
X9.2913Y-1.6323
X9.2913Y-1.7323
X9.2913Y-1.8323
X9.4249Y-3.8823
X9.7575Y-2.3172
T4
X5.9886Y-2.0531
X5.9886Y-2.5531
X6.0886Y-2.0531
X6.0886Y-2.5531
X6.1886Y-2.0531
X6.1886Y-2.5531
X6.2886Y-2.0531
X6.2886Y-2.5531
X6.3886Y-2.0531
X6.3886Y-2.5531
X6.4886Y-2.0531
X6.4886Y-2.5531
X6.5886Y-2.0531
X6.5886Y-2.5531
X6.6236Y-2.2031
X6.6886Y-2.0531
X6.6886Y-2.1531
X6.6886Y-2.2531
X6.6886Y-2.5531
T6
X6.0992Y-4.8228
X6.2992Y-4.8228
X6.4992Y-4.8228
X6.8835Y-4.8228
X7.0835Y-4.8228
X7.2835Y-4.8228
X7.6709Y-4.8228
X7.8709Y-4.8228
X8.0709Y-4.8228
X8.4614Y-4.8228
X8.6614Y-4.8228
X8.8614Y-4.8228
X9.6063Y-1.3339
X9.6063Y-1.5339
X9.6063Y-1.7339
X9.6063Y-1.9339
T3
G00X9.3504Y-4.5079
M15
G01X9.4291Y-4.5079
M16
G05
G00X9.3504Y-4.7441
M15
G01X9.4291Y-4.7441
M16
G05
G00X9.5748Y-4.6654
M15
G01X9.5748Y-4.5866
M16
G05
T5
G00X6.4921Y-1.561
M15
G01X6.4921Y-1.5098
M16
G05
G00X6.9331Y-1.561
M15
G01X6.9331Y-1.5098
M16
G05
G00X7.2205Y-1.561
M15
G01X7.2205Y-1.5098
M16
G05
G00X7.6614Y-1.561
M15
G01X7.6614Y-1.5098
M16
G05
G00X7.9252Y-1.561
M15
G01X7.9252Y-1.5098
M16
G05
G00X8.3661Y-1.561
M15
G01X8.3661Y-1.5098
M16
G05
G00X8.5945Y-1.561
M15
G01X8.5945Y-1.5098
M16
G05
G00X9.0354Y-1.561
M15
G01X9.0354Y-1.5098
M16
G05
M30
