%TF.GenerationSoftware,KiCad,Pcbnew,8.0.5*%
%TF.CreationDate,2025-06-03T16:45:13-04:00*%
%TF.ProjectId,arm,61726d2e-6b69-4636-9164-5f7063625858,rev?*%
%TF.SameCoordinates,Original*%
%TF.FileFunction,Copper,L1,Top*%
%TF.FilePolarity,Positive*%
%FSLAX46Y46*%
G04 Gerber Fmt 4.6, Leading zero omitted, Abs format (unit mm)*
G04 Created by KiCad (PCBNEW 8.0.5) date 2025-06-03 16:45:13*
%MOMM*%
%LPD*%
G01*
G04 APERTURE LIST*
G04 Aperture macros list*
%AMRoundRect*
0 Rectangle with rounded corners*
0 $1 Rounding radius*
0 $2 $3 $4 $5 $6 $7 $8 $9 X,Y pos of 4 corners*
0 Add a 4 corners polygon primitive as box body*
4,1,4,$2,$3,$4,$5,$6,$7,$8,$9,$2,$3,0*
0 Add four circle primitives for the rounded corners*
1,1,$1+$1,$2,$3*
1,1,$1+$1,$4,$5*
1,1,$1+$1,$6,$7*
1,1,$1+$1,$8,$9*
0 Add four rect primitives between the rounded corners*
20,1,$1+$1,$2,$3,$4,$5,0*
20,1,$1+$1,$4,$5,$6,$7,0*
20,1,$1+$1,$6,$7,$8,$9,0*
20,1,$1+$1,$8,$9,$2,$3,0*%
%AMRotRect*
0 Rectangle, with rotation*
0 The origin of the aperture is its center*
0 $1 length*
0 $2 width*
0 $3 Rotation angle, in degrees counterclockwise*
0 Add horizontal line*
21,1,$1,$2,0,0,$3*%
G04 Aperture macros list end*
%TA.AperFunction,ComponentPad*%
%ADD10R,3.000000X3.000000*%
%TD*%
%TA.AperFunction,ComponentPad*%
%ADD11C,3.000000*%
%TD*%
%TA.AperFunction,ComponentPad*%
%ADD12R,3.500000X3.500000*%
%TD*%
%TA.AperFunction,ComponentPad*%
%ADD13RoundRect,0.750000X1.000000X-0.750000X1.000000X0.750000X-1.000000X0.750000X-1.000000X-0.750000X0*%
%TD*%
%TA.AperFunction,ComponentPad*%
%ADD14RoundRect,0.875000X0.875000X-0.875000X0.875000X0.875000X-0.875000X0.875000X-0.875000X-0.875000X0*%
%TD*%
%TA.AperFunction,ComponentPad*%
%ADD15C,1.600000*%
%TD*%
%TA.AperFunction,ComponentPad*%
%ADD16O,1.600000X1.600000*%
%TD*%
%TA.AperFunction,ComponentPad*%
%ADD17RotRect,2.540000X2.540000X78.000000*%
%TD*%
%TA.AperFunction,ComponentPad*%
%ADD18C,2.540000*%
%TD*%
%TA.AperFunction,ComponentPad*%
%ADD19R,1.508000X1.508000*%
%TD*%
%TA.AperFunction,ComponentPad*%
%ADD20C,1.508000*%
%TD*%
%TA.AperFunction,ComponentPad*%
%ADD21R,2.000000X2.000000*%
%TD*%
%TA.AperFunction,ComponentPad*%
%ADD22C,2.000000*%
%TD*%
%TA.AperFunction,ComponentPad*%
%ADD23R,2.000000X3.200000*%
%TD*%
%TA.AperFunction,ComponentPad*%
%ADD24R,1.700000X1.700000*%
%TD*%
%TA.AperFunction,ComponentPad*%
%ADD25O,1.700000X1.700000*%
%TD*%
%TA.AperFunction,ComponentPad*%
%ADD26R,1.524000X1.524000*%
%TD*%
%TA.AperFunction,ComponentPad*%
%ADD27C,1.524000*%
%TD*%
%TA.AperFunction,ViaPad*%
%ADD28C,0.600000*%
%TD*%
%TA.AperFunction,Conductor*%
%ADD29C,0.200000*%
%TD*%
G04 APERTURE END LIST*
D10*
%TO.P,J4,1,Pin_1*%
%TO.N,SERVO1_SIG*%
X214920000Y-122500000D03*
D11*
%TO.P,J4,2,Pin_2*%
%TO.N,GND*%
X220000000Y-122500000D03*
%TO.P,J4,3,Pin_3*%
%TO.N,+6V*%
X225080000Y-122500000D03*
%TD*%
D12*
%TO.P,J6,1*%
%TO.N,+24V*%
X238500000Y-114500000D03*
D13*
%TO.P,J6,2*%
%TO.N,GND*%
X238500000Y-120500000D03*
D14*
%TO.P,J6,3*%
%TO.N,N/C*%
X243200000Y-117500000D03*
%TD*%
D15*
%TO.P,R5,1*%
%TO.N,Net-(R5-Pad1)*%
X159000000Y-38000000D03*
D16*
%TO.P,R5,2*%
%TO.N,DT3*%
X159000000Y-45620000D03*
%TD*%
D15*
%TO.P,R7,1*%
%TO.N,Net-(R7-Pad1)*%
X188120000Y-51000000D03*
D16*
%TO.P,R7,2*%
%TO.N,DT4*%
X180500000Y-51000000D03*
%TD*%
D10*
%TO.P,J3,1,Pin_1*%
%TO.N,SERVO2_SIG*%
X194840000Y-122500000D03*
D11*
%TO.P,J3,2,Pin_2*%
%TO.N,GND*%
X199920000Y-122500000D03*
%TO.P,J3,3,Pin_3*%
%TO.N,+6V*%
X205000000Y-122500000D03*
%TD*%
D17*
%TO.P,U1,1,Vin*%
%TO.N,+24V*%
X222000000Y-94912537D03*
D18*
%TO.P,U1,2,GND*%
%TO.N,GND*%
X239391466Y-98609205D03*
%TO.P,U1,3,GND*%
X247840996Y-58857287D03*
%TO.P,U1,4,Vout*%
%TO.N,+3V3*%
X230449531Y-55160619D03*
%TD*%
D15*
%TO.P,R6,1*%
%TO.N,Net-(R6-Pad1)*%
X152000000Y-38190000D03*
D16*
%TO.P,R6,2*%
%TO.N,CLK3*%
X152000000Y-45810000D03*
%TD*%
D15*
%TO.P,R4,1*%
%TO.N,Net-(R4-Pad1)*%
X194810000Y-54000000D03*
D16*
%TO.P,R4,2*%
%TO.N,CLK2*%
X187190000Y-54000000D03*
%TD*%
D19*
%TO.P,U2,1,3V3_1*%
%TO.N,+3V3*%
X159370000Y-72770000D03*
D20*
%TO.P,U2,2,5V_2*%
%TO.N,unconnected-(U2-5V_2-Pad2)*%
X159370000Y-70230000D03*
%TO.P,U2,3,GPIO2/SDA1*%
%TO.N,DIR*%
X161910000Y-72770000D03*
%TO.P,U2,4,5V_4*%
%TO.N,unconnected-(U2-5V_4-Pad4)*%
X161910000Y-70230001D03*
%TO.P,U2,5,GPIO3/SCL*%
%TO.N,STEP*%
X164450001Y-72770000D03*
%TO.P,U2,6,GND_6*%
%TO.N,GND*%
X164450000Y-70230000D03*
%TO.P,U2,7,GPIO4/GPIO_GCLK*%
%TO.N,UART1*%
X166990000Y-72770000D03*
%TO.P,U2,8,GPIO14/TXD0*%
%TO.N,unconnected-(U2-GPIO14{slash}TXD0-Pad8)*%
X166990000Y-70230001D03*
%TO.P,U2,9,GND_9*%
%TO.N,GND*%
X169530000Y-72770000D03*
%TO.P,U2,10,GPIO15/RXD0*%
%TO.N,SERVO1_SIG*%
X169530000Y-70230000D03*
%TO.P,U2,11,GPIO17/GPIO_GEN0*%
%TO.N,SERVO3_SIG*%
X172070000Y-72770000D03*
%TO.P,U2,12,GPIO18/GPIO_GEN1*%
%TO.N,SERVO4_SIG*%
X172070000Y-70230001D03*
%TO.P,U2,13,GPIO27/GPIO_GEN2*%
%TO.N,unconnected-(U2-GPIO27{slash}GPIO_GEN2-Pad13)*%
X174610000Y-72770001D03*
%TO.P,U2,14,GND_14*%
%TO.N,GND*%
X174610000Y-70230000D03*
%TO.P,U2,15,GPIO22/GPIO_GEN3*%
%TO.N,CLK1*%
X177150000Y-72770000D03*
%TO.P,U2,16,GPIO23/GPIO_GEN4*%
%TO.N,DT2*%
X177150000Y-70230001D03*
%TO.P,U2,17,3V3_17*%
%TO.N,+3V3*%
X179690000Y-72770000D03*
%TO.P,U2,18,GPIO24/GPIO_GEN5*%
%TO.N,CLK2*%
X179690000Y-70230000D03*
%TO.P,U2,19,GPIO10/SPI_MOSI*%
%TO.N,unconnected-(U2-GPIO10{slash}SPI_MOSI-Pad19)*%
X182230000Y-72770000D03*
%TO.P,U2,20,GND_20*%
%TO.N,GND*%
X182230000Y-70230000D03*
%TO.P,U2,21,GPIO9/SPI_MISO*%
%TO.N,unconnected-(U2-GPIO9{slash}SPI_MISO-Pad21)*%
X184770000Y-72770000D03*
%TO.P,U2,22,GPIO25/GPIO_GEN6*%
%TO.N,DT3*%
X184770000Y-70230000D03*
%TO.P,U2,23,GPIO11/SPI_SCLK*%
%TO.N,unconnected-(U2-GPIO11{slash}SPI_SCLK-Pad23)*%
X187310000Y-72770000D03*
%TO.P,U2,24,GPIO8/SPI_~{CE0}*%
%TO.N,unconnected-(U2-GPIO8{slash}SPI_~{CE0}-Pad24)*%
X187310000Y-70230000D03*
%TO.P,U2,25,GND_25*%
%TO.N,GND*%
X189850000Y-72770000D03*
%TO.P,U2,26,GPIO7/SPI_~{CE1}*%
%TO.N,unconnected-(U2-GPIO7{slash}SPI_~{CE1}-Pad26)*%
X189850000Y-70230001D03*
%TO.P,U2,27,ID_SD*%
%TO.N,unconnected-(U2-ID_SD-Pad27)*%
X192390000Y-72769999D03*
%TO.P,U2,28,ID_SC*%
%TO.N,unconnected-(U2-ID_SC-Pad28)*%
X192390000Y-70230000D03*
%TO.P,U2,29,GPIO5*%
%TO.N,DIAG*%
X194930000Y-72770000D03*
%TO.P,U2,30,GND_30*%
%TO.N,GND*%
X194929999Y-70230000D03*
%TO.P,U2,31,GPIO6*%
%TO.N,unconnected-(U2-GPIO6-Pad31)*%
X197470000Y-72770000D03*
%TO.P,U2,32,GPIO12*%
%TO.N,unconnected-(U2-GPIO12-Pad32)*%
X197470000Y-70230000D03*
%TO.P,U2,33,GPIO13*%
%TO.N,unconnected-(U2-GPIO13-Pad33)*%
X200010000Y-72770000D03*
%TO.P,U2,34,GND_34*%
%TO.N,GND*%
X200009999Y-70230000D03*
%TO.P,U2,35,GPIO19*%
%TO.N,DT4*%
X202550000Y-72770000D03*
%TO.P,U2,36,GPIO16*%
%TO.N,SERVO2_SIG*%
X202550000Y-70230000D03*
%TO.P,U2,37,GPIO26*%
%TO.N,CLK3*%
X205090000Y-72770001D03*
%TO.P,U2,38,GPIO20*%
%TO.N,CLK4*%
X205089999Y-70230000D03*
%TO.P,U2,39,GND_39*%
%TO.N,GND*%
X207630000Y-72770000D03*
%TO.P,U2,40,GPIO21*%
%TO.N,DT1*%
X207630000Y-70230000D03*
%TD*%
D21*
%TO.P,SW4,A,A*%
%TO.N,Net-(R8-Pad1)*%
X186500000Y-46500000D03*
D22*
%TO.P,SW4,B,B*%
%TO.N,Net-(R7-Pad1)*%
X191500000Y-46500000D03*
%TO.P,SW4,C,C*%
%TO.N,GND*%
X189000000Y-46500000D03*
D23*
%TO.P,SW4,MP*%
%TO.N,N/C*%
X183400000Y-39000000D03*
X194600000Y-39000000D03*
D22*
%TO.P,SW4,S1*%
X191500000Y-32000000D03*
%TO.P,SW4,S2*%
X186500000Y-32000000D03*
%TD*%
D21*
%TO.P,SW1,A,A*%
%TO.N,Net-(R2-Pad1)*%
X221400000Y-46500000D03*
D22*
%TO.P,SW1,B,B*%
%TO.N,Net-(R1-Pad1)*%
X226400000Y-46500000D03*
%TO.P,SW1,C,C*%
%TO.N,GND*%
X223900000Y-46500000D03*
D23*
%TO.P,SW1,MP*%
%TO.N,N/C*%
X218300000Y-39000000D03*
X229500000Y-39000000D03*
D22*
%TO.P,SW1,S1*%
X226400000Y-32000000D03*
%TO.P,SW1,S2*%
X221400000Y-32000000D03*
%TD*%
D24*
%TO.P,J7,1,Pin_1*%
%TO.N,+24V*%
X236000000Y-38920000D03*
D25*
%TO.P,J7,2,Pin_2*%
%TO.N,GND*%
X236000000Y-41460000D03*
%TO.P,J7,3,Pin_3*%
%TO.N,+6V*%
X236000000Y-44000000D03*
%TO.P,J7,4,Pin_4*%
%TO.N,GND*%
X236000000Y-46540000D03*
%TD*%
D15*
%TO.P,R1,1*%
%TO.N,Net-(R1-Pad1)*%
X215620000Y-57000000D03*
D16*
%TO.P,R1,2*%
%TO.N,DT1*%
X208000000Y-57000000D03*
%TD*%
D10*
%TO.P,J5,1,Pin_1*%
%TO.N,B-*%
X244000000Y-49120000D03*
D11*
%TO.P,J5,2,Pin_2*%
%TO.N,B+*%
X244000000Y-44040000D03*
%TO.P,J5,3,Pin_3*%
%TO.N,A-*%
X244000000Y-38960000D03*
%TO.P,J5,4,Pin_4*%
%TO.N,A+*%
X244000000Y-33880000D03*
%TD*%
D21*
%TO.P,SW3,A,A*%
%TO.N,Net-(R6-Pad1)*%
X168000000Y-46500000D03*
D22*
%TO.P,SW3,B,B*%
%TO.N,Net-(R5-Pad1)*%
X173000000Y-46500000D03*
%TO.P,SW3,C,C*%
%TO.N,GND*%
X170500000Y-46500000D03*
D23*
%TO.P,SW3,MP*%
%TO.N,N/C*%
X164900000Y-39000000D03*
X176100000Y-39000000D03*
D22*
%TO.P,SW3,S1*%
X173000000Y-32000000D03*
%TO.P,SW3,S2*%
X168000000Y-32000000D03*
%TD*%
D15*
%TO.P,R9,1*%
%TO.N,Net-(U3-PDN{slash}UART1)*%
X153190000Y-32500000D03*
D16*
%TO.P,R9,2*%
%TO.N,UART1*%
X160810000Y-32500000D03*
%TD*%
D15*
%TO.P,R8,1*%
%TO.N,Net-(R8-Pad1)*%
X182500000Y-56690000D03*
D16*
%TO.P,R8,2*%
%TO.N,CLK4*%
X182500000Y-64310000D03*
%TD*%
D15*
%TO.P,R3,1*%
%TO.N,Net-(R3-Pad1)*%
X198000000Y-48690000D03*
D16*
%TO.P,R3,2*%
%TO.N,DT2*%
X198000000Y-56310000D03*
%TD*%
D26*
%TO.P,U3,JP1_1,DIR*%
%TO.N,DIR*%
X152110000Y-52150000D03*
D27*
%TO.P,U3,JP1_2,STEP*%
%TO.N,STEP*%
X154650000Y-52150000D03*
%TO.P,U3,JP1_3*%
%TO.N,N/C*%
X157190000Y-52150000D03*
%TO.P,U3,JP1_4,PDN/UART1*%
%TO.N,Net-(U3-PDN{slash}UART1)*%
X159730000Y-52150000D03*
%TO.P,U3,JP1_5,PDN/UART2*%
%TO.N,unconnected-(U3-PDN{slash}UART2-PadJP1_5)*%
X162270000Y-52150000D03*
%TO.P,U3,JP1_6,MS2*%
%TO.N,unconnected-(U3-MS2-PadJP1_6)*%
X164810000Y-52150000D03*
%TO.P,U3,JP1_7,MS1*%
%TO.N,unconnected-(U3-MS1-PadJP1_7)*%
X167350000Y-52150000D03*
%TO.P,U3,JP1_8,EN*%
%TO.N,GND*%
X169890000Y-52150000D03*
D26*
%TO.P,U3,JP2_1,VM*%
%TO.N,+24V*%
X169890000Y-64850000D03*
D27*
%TO.P,U3,JP2_2,GND*%
%TO.N,GND*%
X167350000Y-64850000D03*
%TO.P,U3,JP2_3,OA2*%
%TO.N,A-*%
X164810000Y-64850000D03*
%TO.P,U3,JP2_4,OA1*%
%TO.N,A+*%
X162270000Y-64850000D03*
%TO.P,U3,JP2_5,OB1*%
%TO.N,B+*%
X159730000Y-64850000D03*
%TO.P,U3,JP2_6,OB2*%
%TO.N,B-*%
X157190000Y-64850000D03*
%TO.P,U3,JP2_7,VIO*%
%TO.N,+3V3*%
X154650000Y-64850000D03*
%TO.P,U3,JP2_8,GND*%
%TO.N,GND*%
X152110000Y-64850000D03*
%TO.P,U3,JP3_1,DIAG*%
%TO.N,DIAG*%
X169890000Y-57230000D03*
%TO.P,U3,JP3_2,INDEX*%
%TO.N,GND*%
X169890000Y-54690000D03*
%TO.P,U3,VREF,VREF*%
%TO.N,unconnected-(U3-PadVREF)*%
X168239000Y-55960000D03*
%TD*%
D21*
%TO.P,SW2,A,A*%
%TO.N,Net-(R4-Pad1)*%
X204400000Y-46500000D03*
D22*
%TO.P,SW2,B,B*%
%TO.N,Net-(R3-Pad1)*%
X209400000Y-46500000D03*
%TO.P,SW2,C,C*%
%TO.N,GND*%
X206900000Y-46500000D03*
D23*
%TO.P,SW2,MP*%
%TO.N,N/C*%
X201300000Y-39000000D03*
X212500000Y-39000000D03*
D22*
%TO.P,SW2,S1*%
X209400000Y-32000000D03*
%TO.P,SW2,S2*%
X204400000Y-32000000D03*
%TD*%
D10*
%TO.P,J2,1,Pin_1*%
%TO.N,SERVO3_SIG*%
X174840000Y-122500000D03*
D11*
%TO.P,J2,2,Pin_2*%
%TO.N,GND*%
X179920000Y-122500000D03*
%TO.P,J2,3,Pin_3*%
%TO.N,+6V*%
X185000000Y-122500000D03*
%TD*%
D10*
%TO.P,J1,1,Pin_1*%
%TO.N,SERVO4_SIG*%
X154920000Y-122500000D03*
D11*
%TO.P,J1,2,Pin_2*%
%TO.N,GND*%
X160000000Y-122500000D03*
%TO.P,J1,3,Pin_3*%
%TO.N,+6V*%
X165080000Y-122500000D03*
%TD*%
D15*
%TO.P,R2,1*%
%TO.N,Net-(R2-Pad1)*%
X215620000Y-50500000D03*
D16*
%TO.P,R2,2*%
%TO.N,CLK1*%
X208000000Y-50500000D03*
%TD*%
D28*
%TO.N,GND*%
X208684000Y-60500000D03*
X168000000Y-67000000D03*
X195000000Y-64000000D03*
X155000000Y-81000000D03*
%TO.N,DT4*%
X202500000Y-63500000D03*
%TO.N,UART1*%
X154000000Y-76000000D03*
%TO.N,DIAG*%
X184000000Y-67000000D03*
X196000000Y-68000000D03*
%TD*%
D29*
%TO.N,Net-(R2-Pad1)*%
X217400000Y-50500000D02*
X221400000Y-46500000D01*
X215620000Y-50500000D02*
X217400000Y-50500000D01*
%TO.N,GND*%
X199920000Y-122500000D02*
X197420000Y-120000000D01*
X179920000Y-122500000D02*
X177420000Y-120000000D01*
X234850000Y-45390000D02*
X234850000Y-42610000D01*
X234850000Y-42610000D02*
X236000000Y-41460000D01*
X162500000Y-120000000D02*
X160000000Y-122500000D01*
X177420000Y-120000000D02*
X162500000Y-120000000D01*
X169530000Y-72770000D02*
X168044000Y-71284000D01*
X210890540Y-59500000D02*
X209500000Y-59500000D01*
X193444000Y-71715999D02*
X194929999Y-70230000D01*
X209500000Y-59500000D02*
X208684000Y-60316000D01*
X201720000Y-120700000D02*
X218200000Y-120700000D01*
X237000000Y-120000000D02*
X222500000Y-120000000D01*
X218200000Y-120700000D02*
X220000000Y-122500000D01*
X194929999Y-70230000D02*
X194929999Y-64070001D01*
X164450000Y-70230000D02*
X165504001Y-71284001D01*
X223890540Y-46500000D02*
X210890540Y-59500000D01*
X161300000Y-81000000D02*
X169530000Y-72770000D01*
X222500000Y-120000000D02*
X220000000Y-122500000D01*
X199920000Y-122500000D02*
X201720000Y-120700000D01*
X208684000Y-60500000D02*
X208684000Y-71716000D01*
X194929999Y-64070001D02*
X195000000Y-64000000D01*
X236000000Y-46540000D02*
X234850000Y-45390000D01*
X155000000Y-81000000D02*
X161300000Y-81000000D01*
X208684000Y-60316000D02*
X208684000Y-60500000D01*
X182210000Y-120210000D02*
X179920000Y-122500000D01*
X237420000Y-120420000D02*
X237000000Y-120000000D01*
X189850000Y-72770000D02*
X190904001Y-71715999D01*
X223900000Y-46500000D02*
X223890540Y-46500000D01*
X208684000Y-71716000D02*
X207630000Y-72770000D01*
X165504001Y-71284001D02*
X168044001Y-71284001D01*
X168044001Y-71284001D02*
X169530000Y-72770000D01*
X182420000Y-120000000D02*
X182210000Y-120210000D01*
X197420000Y-120000000D02*
X182420000Y-120000000D01*
X190904001Y-71715999D02*
X193444000Y-71715999D01*
X168044000Y-67044000D02*
X168000000Y-67000000D01*
X168044000Y-71284000D02*
X168044000Y-67044000D01*
%TO.N,Net-(R1-Pad1)*%
X215620000Y-55336226D02*
X215620000Y-57000000D01*
X220350448Y-50605778D02*
X215620000Y-55336226D01*
X222294222Y-50605778D02*
X220350448Y-50605778D01*
X226400000Y-46500000D02*
X222294222Y-50605778D01*
%TO.N,Net-(R3-Pad1)*%
X206900000Y-48500000D02*
X209400000Y-46000000D01*
X197500000Y-48500000D02*
X206900000Y-48500000D01*
%TO.N,Net-(R4-Pad1)*%
X204400000Y-46000000D02*
X195690000Y-46000000D01*
X194810000Y-54000000D02*
X194810000Y-46880000D01*
X194810000Y-46880000D02*
X195690000Y-46000000D01*
%TO.N,Net-(R6-Pad1)*%
X153125635Y-38190000D02*
X152000000Y-38190000D01*
X161435635Y-46500000D02*
X153125635Y-38190000D01*
X168000000Y-46500000D02*
X168000000Y-47000000D01*
X168000000Y-46500000D02*
X161435635Y-46500000D01*
%TO.N,Net-(R5-Pad1)*%
X171700000Y-45200000D02*
X173000000Y-46500000D01*
X166200000Y-45200000D02*
X171700000Y-45200000D01*
X159000000Y-38000000D02*
X166200000Y-45200000D01*
%TO.N,+24V*%
X234710660Y-110710660D02*
X238730916Y-114730916D01*
X216393575Y-106668263D02*
X220435972Y-110710660D01*
X232019531Y-84893006D02*
X232019531Y-42900469D01*
X222000000Y-94912537D02*
X216393575Y-100518962D01*
X216393575Y-100518962D02*
X216393575Y-106668263D01*
X220435972Y-110710660D02*
X234710660Y-110710660D01*
X232019531Y-42900469D02*
X236000000Y-38920000D01*
X222000000Y-94912537D02*
X232019531Y-84893006D01*
%TO.N,+3V3*%
X197506582Y-74224000D02*
X198524000Y-73206582D01*
X158316000Y-68516000D02*
X158316000Y-71716000D01*
X220100000Y-45200000D02*
X220800000Y-45200000D01*
X158316000Y-71716000D02*
X159370000Y-72770000D01*
X220800000Y-45200000D02*
X222500000Y-43500000D01*
X229500000Y-43500000D02*
X230449531Y-44449531D01*
X179690000Y-72770000D02*
X181144000Y-74224000D01*
X198524000Y-58420365D02*
X207544365Y-49400000D01*
X216600000Y-49400000D02*
X220100000Y-45900000D01*
X222500000Y-43500000D02*
X229500000Y-43500000D01*
X220100000Y-45900000D02*
X220100000Y-45200000D01*
X198524000Y-73206582D02*
X198524000Y-58420365D01*
X230449531Y-44449531D02*
X230449531Y-55160618D01*
X207544365Y-49400000D02*
X216600000Y-49400000D01*
X181144000Y-74224000D02*
X197506582Y-74224000D01*
X154650000Y-64850000D02*
X158316000Y-68516000D01*
%TO.N,DT3*%
X163595000Y-52905000D02*
X179866000Y-69176000D01*
X159000000Y-45620000D02*
X159000000Y-48310000D01*
X179866000Y-69176000D02*
X183716000Y-69176000D01*
X159000000Y-48310000D02*
X161095000Y-50405000D01*
X162026895Y-50405000D02*
X163595000Y-51973105D01*
X163595000Y-51973105D02*
X163595000Y-52905000D01*
X183716000Y-69176000D02*
X184770000Y-70230000D01*
X161095000Y-50405000D02*
X162026895Y-50405000D01*
%TO.N,CLK2*%
X184990582Y-71500000D02*
X185824000Y-70666582D01*
X185824000Y-70666582D02*
X185824000Y-59296000D01*
X185824000Y-59296000D02*
X187190000Y-57930000D01*
X180960000Y-71500000D02*
X184990582Y-71500000D01*
X179690000Y-70230000D02*
X180960000Y-71500000D01*
X187190000Y-57930000D02*
X187190000Y-54000000D01*
%TO.N,DT1*%
X208000000Y-69860000D02*
X207630000Y-70230000D01*
X208000000Y-57000000D02*
X208000000Y-69860000D01*
%TO.N,DT2*%
X180744000Y-73206582D02*
X181361418Y-73824000D01*
X177150000Y-70230001D02*
X178419999Y-71500000D01*
X181361418Y-73824000D02*
X185276000Y-73824000D01*
X178419999Y-71500000D02*
X179910582Y-71500000D01*
X195000000Y-56120000D02*
X197500000Y-56120000D01*
X185276000Y-73824000D02*
X185824000Y-73276000D01*
X188364000Y-70666582D02*
X188364000Y-62756000D01*
X185824000Y-72676000D02*
X187000000Y-71500000D01*
X179910582Y-71500000D02*
X180744000Y-72333418D01*
X187000000Y-71500000D02*
X187530582Y-71500000D01*
X187530582Y-71500000D02*
X188364000Y-70666582D01*
X188364000Y-62756000D02*
X195000000Y-56120000D01*
X185824000Y-73276000D02*
X185824000Y-72676000D01*
X180744000Y-72333418D02*
X180744000Y-73206582D01*
%TO.N,CLK3*%
X156970686Y-53905000D02*
X158595000Y-53905000D01*
X156095000Y-51405000D02*
X156095000Y-53029314D01*
X177586583Y-71716001D02*
X174216001Y-71716001D01*
X152000000Y-47310000D02*
X152000000Y-45810000D01*
X168595000Y-63905000D02*
X158595000Y-53905000D01*
X173556000Y-71056000D02*
X173556000Y-69000000D01*
X168595000Y-65679000D02*
X171916000Y-69000000D01*
X178636000Y-72765418D02*
X177586583Y-71716001D01*
X156095000Y-51405000D02*
X152000000Y-47310000D01*
X178636000Y-73206582D02*
X178636000Y-72765418D01*
X205090000Y-72770001D02*
X202360001Y-75500000D01*
X202360001Y-75500000D02*
X180929418Y-75500000D01*
X171916000Y-69000000D02*
X173556000Y-69000000D01*
X156095000Y-53029314D02*
X156970686Y-53905000D01*
X180929418Y-75500000D02*
X178636000Y-73206582D01*
X174216001Y-71716001D02*
X173556000Y-71056000D01*
X168595000Y-63905000D02*
X168595000Y-65679000D01*
%TO.N,CLK1*%
X208000000Y-50500000D02*
X206144000Y-52356000D01*
X180280000Y-75900000D02*
X177150000Y-72770000D01*
X203450583Y-75900000D02*
X180280000Y-75900000D01*
X206144000Y-73206583D02*
X203450583Y-75900000D01*
X206144000Y-52356000D02*
X206144000Y-73206583D01*
%TO.N,Net-(R7-Pad1)*%
X191500000Y-46500000D02*
X188120000Y-49880000D01*
X188120000Y-49880000D02*
X188120000Y-51000000D01*
%TO.N,DT4*%
X202500000Y-63500000D02*
X203604000Y-64604000D01*
X203604000Y-71716000D02*
X202550000Y-72770000D01*
X203604000Y-64604000D02*
X203604000Y-71716000D01*
%TO.N,Net-(R8-Pad1)*%
X186500000Y-52690000D02*
X182500000Y-56690000D01*
X186500000Y-46500000D02*
X186500000Y-52690000D01*
%TO.N,+6V*%
X245500000Y-51500000D02*
X245800000Y-51200000D01*
X183200000Y-124300000D02*
X166880000Y-124300000D01*
X231580000Y-129000000D02*
X246000000Y-129000000D01*
X246500000Y-119400000D02*
X245500000Y-118400000D01*
X245500000Y-118400000D02*
X245500000Y-51500000D01*
X186800000Y-124300000D02*
X185000000Y-122500000D01*
X246500000Y-128500000D02*
X246500000Y-119400000D01*
X225080000Y-122500000D02*
X231580000Y-129000000D01*
X225080000Y-122500000D02*
X223280000Y-124300000D01*
X245500000Y-41780000D02*
X238220000Y-41780000D01*
X205000000Y-122500000D02*
X203200000Y-124300000D01*
X166880000Y-124300000D02*
X165080000Y-122500000D01*
X206800000Y-124300000D02*
X205000000Y-122500000D01*
X185000000Y-122500000D02*
X183200000Y-124300000D01*
X223280000Y-124300000D02*
X206800000Y-124300000D01*
X245800000Y-42080000D02*
X245500000Y-41780000D01*
X238220000Y-41780000D02*
X236000000Y-44000000D01*
X245800000Y-51200000D02*
X245800000Y-42080000D01*
X203200000Y-124300000D02*
X186800000Y-124300000D01*
X246000000Y-129000000D02*
X246500000Y-128500000D01*
%TO.N,STEP*%
X163396001Y-60896001D02*
X163396001Y-71716000D01*
X163396001Y-71716000D02*
X164450001Y-72770000D01*
X154650000Y-52150000D02*
X163396001Y-60896001D01*
%TO.N,DIR*%
X153172000Y-65172000D02*
X153172000Y-53212000D01*
X161910000Y-72770000D02*
X160856000Y-73824000D01*
X157324000Y-73824000D02*
X157324000Y-69324000D01*
X157324000Y-69324000D02*
X153172000Y-65172000D01*
X153172000Y-53212000D02*
X152110000Y-52150000D01*
X160856000Y-73824000D02*
X157324000Y-73824000D01*
%TO.N,UART1*%
X154000000Y-76000000D02*
X163760000Y-76000000D01*
X163760000Y-76000000D02*
X166990000Y-72770000D01*
%TO.N,DIAG*%
X169890000Y-57230000D02*
X179660000Y-67000000D01*
X196000000Y-71700000D02*
X194930000Y-72770000D01*
X179660000Y-67000000D02*
X184000000Y-67000000D01*
X196000000Y-68000000D02*
X196000000Y-71700000D01*
%TD*%
M02*
